<svg width="76" height="76" viewBox="0 0 76 76" fill="none" xmlns="http://www.w3.org/2000/svg">
<rect x="0.583008" width="75.2261" height="75.2261" rx="6.68677" fill="#F2F1FA"/>
<path d="M38.1963 18.8066C45.7084 18.8066 49.4645 18.8067 52.1699 20.5967C53.378 21.396 54.4126 22.4307 55.2119 23.6387C57.0021 26.3442 57.0029 30.1008 57.0029 37.6133C57.0029 45.1255 57.002 48.8814 55.2119 51.5869C54.4125 52.7951 53.3781 53.8305 52.1699 54.6299C49.4645 56.4198 45.7082 56.4199 38.1963 56.4199C30.684 56.4199 26.9272 56.4199 24.2217 54.6299C23.0135 53.8305 21.9791 52.7951 21.1797 51.5869C19.3897 48.8815 19.3896 45.1254 19.3896 37.6133C19.3896 30.1008 19.3895 26.3442 21.1797 23.6387C21.9791 22.4306 23.0136 21.396 24.2217 20.5967C26.9272 18.8065 30.6838 18.8066 38.1963 18.8066ZM38.1953 27.877C32.8183 27.8772 28.4591 32.2363 28.459 37.6133C28.459 42.9904 32.8182 47.3494 38.1953 47.3496C43.5726 47.3496 47.9316 42.9905 47.9316 37.6133C47.9315 32.2361 43.5725 27.877 38.1953 27.877ZM38.1953 31.1709C41.7532 31.1709 44.6376 34.0554 44.6377 37.6133C44.6377 41.1713 41.7533 44.0557 38.1953 44.0557C34.6375 44.0555 31.7529 41.1711 31.7529 37.6133C31.753 34.0555 34.6376 31.1711 38.1953 31.1709ZM48.3164 25.1006C47.053 25.1006 46.0285 26.1243 46.0283 27.3877C46.0283 28.6512 47.0529 29.6758 48.3164 29.6758C49.5798 29.6757 50.6035 28.6511 50.6035 27.3877C50.6034 26.1244 49.5797 25.1007 48.3164 25.1006Z" fill="#486284"/>
</svg>
