<svg width="76" height="76" viewBox="0 0 76 76" fill="none" xmlns="http://www.w3.org/2000/svg">
<rect x="0.110352" width="75.2261" height="75.2261" rx="6.68677" fill="#F2F1FA"/>
<path d="M18.917 23.8633C18.917 22.6571 19.3406 21.6621 20.1877 20.8781C21.0348 20.0941 22.1361 19.7021 23.4916 19.7021C24.8228 19.7021 25.8998 20.0881 26.7228 20.86C27.5699 21.6561 27.9935 22.6933 27.9935 23.9718C27.9935 25.1297 27.582 26.0946 26.7591 26.8665C25.912 27.6626 24.7986 28.0606 23.4189 28.0606H23.3826C22.0514 28.0606 20.9743 27.6626 20.1514 26.8665C19.3284 26.0705 18.917 25.0694 18.917 23.8633ZM19.389 55.5241V31.3533H27.4489V55.5241H19.389ZM31.9146 55.5241H39.9745V42.0275C39.9745 41.1832 40.0713 40.5319 40.2649 40.0736C40.6038 39.2534 41.1181 38.5599 41.808 37.9931C42.4978 37.4262 43.3631 37.1427 44.4038 37.1427C47.1147 37.1427 48.4701 38.964 48.4701 42.6065V55.5241H56.5301V41.6657C56.5301 38.0956 55.6829 35.3878 53.9886 33.5424C52.2943 31.6971 50.0555 30.7744 47.272 30.7744C44.1497 30.7744 41.7172 32.1132 39.9745 34.7908V34.8632H39.9382L39.9745 34.7908V31.3533H31.9146C31.963 32.1252 31.9872 34.5254 31.9872 38.5539C31.9872 42.5824 31.963 48.2391 31.9146 55.5241Z" fill="#486284"/>
</svg>
