<svg width="77" height="70" viewBox="0 0 77 70" fill="none" xmlns="http://www.w3.org/2000/svg">
<g clip-path="url(#clip0_69_1355)">
<path d="M18.7551 20.2881C15.8126 20.2881 12.9906 21.457 10.91 23.5376L4.11966 30.328C2.03901 32.4086 0.870117 35.2305 0.870117 38.173C0.870117 44.3005 5.83735 49.2677 11.9648 49.2677C14.9073 49.2677 17.7292 48.0987 19.8098 46.0181L24.5067 41.3212C24.5067 41.3211 24.5068 41.3213 24.5067 41.3212L38.192 27.636C39.1857 26.6423 40.5334 26.084 41.9387 26.084C44.2915 26.084 46.2862 27.6174 46.9777 29.7394L51.2967 25.4203C49.3264 22.3344 45.8716 20.2881 41.9387 20.2881C38.9963 20.2881 36.1743 21.457 34.0937 23.5376L15.7115 41.9198C14.7178 42.9135 13.3701 43.4718 11.9648 43.4718C9.03834 43.4718 6.66604 41.0995 6.66604 38.173C6.66604 36.7677 7.22429 35.42 8.21799 34.4263L15.0083 27.636C16.002 26.6423 17.3497 26.084 18.7551 26.084C21.1079 26.084 23.1025 27.6175 23.794 29.7395L28.1132 25.4204C26.1428 22.3344 22.688 20.2881 18.7551 20.2881Z" fill="#394149"/>
<path d="M38.8954 41.9198C37.9017 42.9135 36.5539 43.4718 35.1486 43.4718C32.7962 43.4718 30.8017 41.9387 30.1099 39.8171L25.791 44.1361C27.7614 47.2216 31.2161 49.2677 35.1486 49.2677C38.0911 49.2677 40.9131 48.0987 42.9937 46.0181L61.3758 27.636C62.3695 26.6423 63.7173 26.084 65.1226 26.084C68.0491 26.084 70.4213 28.4563 70.4213 31.3827C70.4213 32.788 69.8631 34.1358 68.8694 35.1295L62.0791 41.9198C61.0854 42.9135 59.7376 43.4718 58.3323 43.4718C55.9796 43.4718 53.9851 41.9384 53.2934 39.8167L48.9745 44.1357C50.9448 47.2215 54.3996 49.2677 58.3323 49.2677C61.2748 49.2677 64.0967 48.0987 66.1774 46.0181L72.9677 39.2278C75.0483 37.1472 76.2172 34.3252 76.2172 31.3827C76.2172 25.2553 71.25 20.2881 65.1226 20.2881C62.1801 20.2881 59.3582 21.457 57.2775 23.5376L38.8954 41.9198Z" fill="#394149"/>
</g>
<defs>
<clipPath id="clip0_69_1355">
<rect width="75.3469" height="28.9796" fill="white" transform="translate(0.870117 20.2881)"/>
</clipPath>
</defs>
</svg>
