<svg width="81" height="70" viewBox="0 0 81 70" fill="none" xmlns="http://www.w3.org/2000/svg">
<g clip-path="url(#clip0_69_1359)">
<path d="M80.382 28.5033C80.3903 28.4429 80.3903 28.3818 80.382 28.3214C80.3899 28.2722 80.3899 28.222 80.382 28.1726L79.7916 23.9233C79.7065 23.4149 79.4787 22.9397 79.1339 22.5509L79.0326 22.4352L78.8473 22.2533L68.6267 13.6223L68.9134 13.9034C68.6789 13.6283 68.3844 13.4082 68.0517 13.2594C67.719 13.1106 67.3564 13.0369 66.9908 13.0436H63.8875C63.3829 13.0338 62.8898 13.1911 62.4876 13.4901C62.0654 13.1929 61.557 13.0364 61.0372 13.0436H57.9339C57.5269 13.0372 57.1255 13.1362 56.77 13.3307C56.4146 13.5253 56.118 13.8084 55.9101 14.1514C55.5896 14.6414 55.4692 15.2318 55.5728 15.8049L55.9607 18.4835C55.7037 18.3406 55.4128 18.2665 55.1174 18.2685H40.0902C39.5511 18.2718 39.0243 18.4268 38.5723 18.7149C38.1352 18.9832 37.7843 19.3672 37.5604 19.8227L36.3966 18.8472C35.9386 18.4317 35.3341 18.2066 34.7101 18.2189H11.1321C10.591 18.2286 10.062 18.3768 9.59739 18.6488C8.96177 19.0135 8.49595 19.6066 8.29872 20.3022L0.810423 44.8559C0.670507 45.2604 0.656743 45.6968 0.770894 46.1091C0.885046 46.5213 1.12194 46.891 1.45132 47.1707C1.53715 47.242 1.62726 47.3083 1.72117 47.369C1.72117 47.369 1.56936 47.2698 1.48503 47.1872L11.7056 55.8347C12.1379 56.2249 12.7032 56.4431 13.2908 56.4464H37.0544C37.5971 56.4326 38.1266 56.2786 38.5892 56C38.8509 55.8598 39.085 55.6751 39.2807 55.4543L39.365 55.3386L39.4999 55.1733L39.6011 54.9914L40.7143 55.9339C41.1404 56.3086 41.6934 56.5148 42.2659 56.5126H66.08C66.6221 56.4949 67.1505 56.3412 67.6147 56.0662C67.8705 55.9174 68.1033 55.7336 68.3063 55.5205L68.3905 55.4048L68.5255 55.2395C68.5972 55.1348 68.6594 55.0242 68.711 54.9087C68.7661 54.8085 68.8112 54.7033 68.8459 54.5946L75.6764 32.174V31.9755C75.6848 31.8986 75.6848 31.821 75.6764 31.7441V31.5953C75.6846 31.546 75.6846 31.4958 75.6764 31.4464C75.6841 31.3419 75.6841 31.2369 75.6764 31.1322H77.869C78.0597 31.1494 78.2516 31.1494 78.4424 31.1322H78.5942C78.7176 31.0962 78.8365 31.0462 78.9484 30.9835H79.1171L79.4206 30.752L79.5555 30.6528L79.7916 30.3551V30.256L79.9603 29.9749C79.9509 29.9202 79.9509 29.8642 79.9603 29.8096C79.9513 29.7827 79.9513 29.7537 79.9603 29.7269C79.9962 29.6299 80.0244 29.5304 80.0446 29.4292C80.0368 29.3966 80.0368 29.3626 80.0446 29.33C80.0365 29.2808 80.0365 29.2305 80.0446 29.1812C80.0446 29.1812 80.382 28.5364 80.382 28.5033Z" fill="black"/>
<path d="M35.4016 20.1041C35.4912 20.1834 35.5537 20.2878 35.5808 20.4031C35.608 20.5184 35.5984 20.6391 35.5535 20.7489L28.0821 45.2859C27.988 45.5538 27.7955 45.7778 27.5424 45.9143C27.3364 46.0494 27.098 46.1291 26.8508 46.1458H3.1042C2.9014 46.1362 2.70927 46.0538 2.5645 45.9143C2.47837 45.8362 2.41793 45.7347 2.39089 45.6228C2.36384 45.5109 2.37146 45.3936 2.41271 45.2859L9.901 20.7489C9.98728 20.4776 10.1737 20.2477 10.4238 20.1041C10.6332 19.9787 10.8705 19.9049 11.1153 19.8891H34.8619C35.0631 19.891 35.2561 19.9679 35.4016 20.1041ZM23.0055 40.3422L27.4748 25.6927H14.9607L10.5081 40.3422H23.0055ZM58.0689 20.3521C58.1499 20.4444 58.2512 20.5176 58.3651 20.5662C58.479 20.6149 58.6025 20.6378 58.7267 20.6331H61.8131C61.9306 20.6343 62.0464 20.606 62.1498 20.551C62.253 20.4961 62.3403 20.4162 62.4033 20.319C62.4581 20.243 62.4969 20.1571 62.5171 20.0662C62.5374 19.9753 62.5388 19.8813 62.5213 19.7899L61.9142 15.4248C61.8564 15.2228 61.7526 15.0362 61.6107 14.8792C61.5296 14.7869 61.4284 14.7137 61.3145 14.665C61.2006 14.6163 61.077 14.5935 60.9529 14.5981H57.8665C57.749 14.597 57.6331 14.6252 57.5298 14.6802C57.4266 14.7352 57.3392 14.815 57.2763 14.9123C57.1582 15.1437 57.1076 15.2925 57.1582 15.4248L57.7822 19.7899C57.8142 20.0024 57.9147 20.1994 58.0689 20.3521ZM67.8678 15.3917C67.8099 15.1897 67.7061 15.0032 67.5642 14.8461C67.4866 14.7541 67.3883 14.681 67.2772 14.6322C67.1661 14.5835 67.045 14.5605 66.9233 14.565H63.82C63.7045 14.5618 63.5901 14.5893 63.4892 14.6446C63.3882 14.6999 63.3044 14.781 63.2467 14.8792C63.1344 15.0259 63.0858 15.2101 63.1117 15.3917L63.7357 19.7568C63.7749 19.9671 63.8742 20.1621 64.0225 20.319C64.1049 20.4095 64.2064 20.4815 64.32 20.53C64.4335 20.5785 64.5563 20.6024 64.6802 20.6001H67.7835C67.8988 20.6016 68.0124 20.5733 68.113 20.5182C68.2137 20.4631 68.2978 20.383 68.3569 20.2859C68.4156 20.212 68.4565 20.126 68.477 20.0345C68.4975 19.9429 68.4967 19.8481 68.4749 19.7568L67.8678 15.3917ZM55.3535 22.0055L55.0499 19.856H40.0903C39.8554 19.8687 39.6282 19.943 39.4325 20.071C39.3083 20.1374 39.2001 20.2294 39.1157 20.3408C39.0313 20.4521 38.9726 20.58 38.9435 20.7158L37.6954 24.8163C37.6456 24.9188 37.6285 25.0338 37.6466 25.1459C37.6647 25.2581 37.7169 25.3622 37.7965 25.4447C37.9388 25.5757 38.1244 25.6521 38.3194 25.6596H56.5005L52.0311 40.3091H33.9006C33.6668 40.3143 33.4392 40.383 33.2429 40.5075C33.0044 40.656 32.8302 40.8856 32.7538 41.1523L31.4889 45.2529C31.4476 45.3581 31.4367 45.4724 31.4575 45.5833C31.4785 45.6942 31.53 45.7973 31.6069 45.8811C31.7447 46.021 31.9317 46.1038 32.1297 46.1126H55.9438C56.1901 46.0919 56.4275 46.0124 56.6353 45.8811C56.8843 45.744 57.0712 45.5196 57.1582 45.2529L64.0055 22.8322H56.298C56.1757 22.8346 56.0543 22.8123 55.9412 22.7668C55.828 22.7213 55.7257 22.6535 55.6403 22.5677C55.5009 22.4177 55.4022 22.2358 55.3535 22.0386V22.0055Z" fill="white"/>
</g>
<defs>
<clipPath id="clip0_69_1359">
<rect width="79.6939" height="43.4694" fill="white" transform="translate(0.694336 13.0432)"/>
</clipPath>
</defs>
</svg>
