<svg width="70" height="70" viewBox="0 0 70 70" fill="none" xmlns="http://www.w3.org/2000/svg">
<g clip-path="url(#clip0_69_1335)">
<path d="M65.4241 19.6576C65.4241 19.7066 65.4241 19.7678 65.4114 19.8046C65.3475 20.2823 65.3475 20.76 65.3858 21.25C65.4114 21.3725 65.4369 21.4949 65.539 21.5929C65.7049 21.7767 65.9601 21.7399 66.0622 21.5194C66.1133 21.4092 66.1133 21.299 66.0877 21.1887C65.9601 20.7233 65.9346 20.2333 65.9218 19.7556C65.9218 19.7311 65.9218 19.6944 65.9218 19.6576C66.0622 19.6454 66.1899 19.6331 66.3047 19.6331C66.3941 19.6209 66.4706 19.6086 66.5345 19.5719C66.7258 19.4739 66.7258 19.2656 66.5216 19.1677C66.4451 19.1309 66.343 19.1187 66.2537 19.1187C65.9346 19.1309 65.6156 19.1309 65.2965 19.1309C65.1817 19.1309 65.0668 19.1432 64.9519 19.1554C64.888 19.1677 64.8115 19.1677 64.7605 19.2044C64.6711 19.2411 64.6201 19.3024 64.6201 19.3881C64.6329 19.4739 64.6711 19.5229 64.7605 19.5596C64.8115 19.5964 64.8753 19.6086 64.9391 19.6086C65.0923 19.6209 65.2582 19.6454 65.4241 19.6576ZM68.9337 20.2211C68.9337 20.2333 68.9464 20.2456 68.9464 20.2456C68.9975 20.5763 69.0486 20.8947 69.0868 21.2132C69.0997 21.3235 69.1124 21.4214 69.189 21.5072C69.3549 21.7154 69.6101 21.6909 69.7249 21.4704C69.776 21.3602 69.7888 21.25 69.7633 21.1275C69.6867 20.76 69.6484 20.3925 69.5718 20.0373C69.5207 19.8168 69.457 19.6086 69.3932 19.4126C69.3549 19.2901 69.2656 19.2044 69.1124 19.1921C68.9593 19.1677 68.8444 19.2411 68.7806 19.3514C68.704 19.4494 68.6402 19.5474 68.5891 19.6576C68.4998 19.8536 68.4232 20.0496 68.3212 20.2333C68.3083 20.2823 68.2956 20.3191 68.2701 20.3558C68.2574 20.3313 68.2446 20.3191 68.2446 20.3191C68.0786 20.0128 67.9255 19.7066 67.7596 19.4126C67.734 19.3881 67.7213 19.3636 67.7085 19.3391C67.632 19.2289 67.5427 19.1677 67.4023 19.1677C67.2746 19.1799 67.1725 19.2534 67.1088 19.3636C67.0832 19.4126 67.0832 19.4494 67.0704 19.4984C67.0194 19.8903 66.9555 20.2823 66.9046 20.6743C66.879 20.8947 66.8662 21.1152 66.8662 21.3357C66.8535 21.3847 66.8662 21.4459 66.8917 21.4949C66.9173 21.5929 66.9939 21.6542 67.0959 21.6664C67.2236 21.6787 67.3129 21.6419 67.3512 21.5439C67.3894 21.4704 67.4023 21.4092 67.415 21.348C67.4661 21.1275 67.5043 20.9192 67.5427 20.711C67.5682 20.5885 67.5809 20.4905 67.6192 20.3558C67.6447 20.4048 67.6702 20.4415 67.6958 20.4783C67.8106 20.6253 67.9255 20.7723 68.0659 20.8947C68.2063 20.9927 68.3212 20.9805 68.436 20.8702C68.4616 20.8457 68.4743 20.8335 68.4998 20.809C68.6147 20.6375 68.7551 20.466 68.8699 20.2945C68.8955 20.27 68.9082 20.2456 68.9337 20.2211Z" fill="#3A3B7B"/>
<path d="M39.5273 19.8977C39.4385 20.1304 39.4216 20.2982 39.4626 20.4376C39.5078 20.6271 39.6252 20.6892 39.7846 20.6409C41.2836 20.2852 44.5707 21.295 45.7877 21.5765C46.0747 21.6356 46.3082 21.28 46.1123 20.9611C45.8265 20.6524 42.5409 19.3305 41.2872 19.2584C40.7958 19.2318 39.9173 19.1108 39.5273 19.8977Z" fill="#3A3B7B"/>
<path d="M52.3738 15.6187C52.5336 15.7072 52.6229 15.7916 52.667 15.886C52.7326 16.0097 52.698 16.0953 52.5877 16.139C51.5968 16.6031 50.2782 18.6014 49.746 19.2906C49.617 19.4491 49.3194 19.357 49.2744 19.0963C49.2837 18.8015 50.4525 16.6329 51.1048 16.0423C51.3612 15.8117 51.7847 15.3592 52.3738 15.6187Z" fill="#3A3B7B"/>
<path d="M44.4834 14.6352C44.6754 14.4964 44.8748 14.4478 44.9767 14.538C46.4717 15.7651 47.2645 17.7084 47.7554 19.4874C47.7739 19.5289 47.7751 19.5884 47.7603 19.6504C47.7542 19.7034 47.7138 19.7595 47.6497 19.8028C47.5812 19.8507 47.5222 19.8652 47.4945 19.824C46.8393 18.9686 43.0969 15.6405 44.4834 14.6352Z" fill="#3A3B7B"/>
<path d="M12.8241 35.9105C13.1824 35.6544 13.5719 35.4413 13.9841 35.2759C14.4154 35.1575 14.8751 35.1771 15.2938 35.3318C15.7123 35.4865 16.0671 35.7678 16.3043 36.1332C16.5165 36.4976 16.5995 36.9184 16.5409 37.3321C16.4823 37.7457 16.2853 38.1299 15.9794 38.4268C15.7423 38.6675 15.4732 38.8771 15.179 39.0504C13.8682 39.8632 12.5456 40.6314 11.2232 41.4442C10.9526 41.6476 10.6655 41.8301 10.3647 41.9898C9.90718 42.2088 9.38431 42.2674 8.8865 42.1556C8.38869 42.0438 7.94725 41.7685 7.63852 41.3774C7.40772 41.1005 7.21294 40.7976 7.05847 40.4755C5.80559 37.9481 4.50631 35.4317 3.29982 32.8597C2.74298 31.7464 2.29055 30.4659 1.84972 29.23C1.659 28.8709 1.62176 28.4546 1.74592 28.0696C1.87009 27.6845 2.14587 27.3611 2.5146 27.1682C2.88333 26.9753 3.31591 26.9281 3.72036 27.0366C4.12481 27.1451 4.46921 27.4008 4.68031 27.7492C5.32918 28.5768 5.90356 29.4559 6.39723 30.3769C7.65011 32.6037 8.845 34.8305 10.0515 36.9905C10.1217 37.1099 10.1992 37.225 10.2835 37.3356C11.1916 36.9692 12.0457 36.4901 12.8241 35.9105Z" fill="#3A3B7B"/>
<path d="M25.778 35.1337C22.9127 38.3514 18.1099 37.5386 15.697 33.3968C13.98 30.4573 13.6784 25.6028 17.4139 22.5409C18.2116 21.8999 19.1654 21.4632 20.1865 21.2716C21.4384 21.0994 22.715 21.3114 23.8338 21.8773C24.9526 22.4432 25.8564 23.3341 26.4161 24.4226C28.4578 27.9856 28.1678 32.5283 25.778 35.1337ZM24.618 27.6293C24.3135 26.7537 23.7029 26.0062 22.8894 25.5137C22.4292 25.1989 21.8698 25.0458 21.3058 25.0802C20.7416 25.1147 20.2071 25.3347 19.792 25.703C18.1332 27.1171 17.7851 30.4685 18.9916 32.4615C19.1454 32.7865 19.3712 33.0753 19.6534 33.3077C19.9356 33.5402 20.2674 33.7107 20.6254 33.8071C20.9834 33.9037 21.3591 33.9239 21.7261 33.8665C22.0932 33.809 22.4427 33.6753 22.7503 33.4747C23.6495 32.8055 24.3093 31.8841 24.6377 30.8386C24.9662 29.7929 24.9472 28.6751 24.5832 27.6404L24.618 27.6293Z" fill="#3A3B7B"/>
<path d="M37.4718 29.0323C37.1785 29.0929 36.8754 29.0965 36.5805 29.0429C36.2857 28.9893 36.005 28.8798 35.7549 28.7206C35.5361 28.6005 35.3478 28.4353 35.2034 28.237C35.0591 28.0386 34.9624 27.8121 34.9203 27.5735C34.8781 27.3351 34.8916 27.0906 34.9596 26.8577C35.0277 26.6247 35.1488 26.4092 35.3141 26.2265C35.6021 25.8594 36.0109 25.5966 36.4742 25.4805C37.6838 25.1436 38.929 24.9382 40.1864 24.8682C40.4627 24.8373 40.7426 24.8598 41.0097 24.9342C41.2769 25.0087 41.5257 25.1335 41.7419 25.3016C41.958 25.4696 42.137 25.6774 42.2683 25.9127C42.3996 26.148 42.4806 26.4061 42.5066 26.6719C42.8691 27.9774 42.9088 29.3462 42.6226 30.6691C41.5785 34.9446 37.9823 36.4142 33.9452 35.0448C32.812 34.6786 31.8184 33.9964 31.0914 33.0852C30.1218 31.9879 29.4344 30.6874 29.0844 29.2884C28.8009 28.0426 28.832 26.7499 29.1751 25.5181C29.5182 24.2862 30.1633 23.1509 31.0566 22.2071C31.9044 21.1813 33.0047 20.3739 34.2584 19.8578C35.0507 19.4387 35.9777 19.3195 36.857 19.5238C37.0565 19.5767 37.2375 19.68 37.3814 19.8228C37.5253 19.9656 37.6268 20.1427 37.6753 20.3358C37.7239 20.5289 37.7176 20.731 37.6574 20.921C37.5971 21.111 37.485 21.2821 37.3327 21.4166C37.0429 21.6683 36.7282 21.892 36.393 22.0846C35.3616 22.715 34.4641 23.5273 33.748 24.4784C33.2786 25.094 32.9553 25.8008 32.801 26.549C32.6466 27.2973 32.665 28.0689 32.8548 28.8097C33.1178 29.8197 33.7017 30.7263 34.5252 31.4039C37.0774 33.6308 40.3952 31.4818 39.8152 28.4422C38.9684 28.6427 38.2259 28.8542 37.4718 29.0323Z" fill="#3A3B7B"/>
<path d="M53.063 35.3117C49.2927 37.5386 45.0005 35.3117 44.0607 30.6354C43.3763 27.2952 44.6756 22.6188 49.2232 20.8374C50.1907 20.4665 51.2402 20.3363 52.2741 20.4588C53.5164 20.6771 54.6561 21.264 55.5322 22.137C56.4084 23.0099 56.9772 24.1248 57.158 25.3244C57.9237 29.2993 56.1836 33.5414 53.063 35.3117ZM54.3739 27.8184C54.3728 26.8935 54.0319 25.9985 53.4111 25.291C53.0792 24.8534 52.5995 24.5399 52.0537 24.4038C51.5078 24.2678 50.9298 24.3177 50.418 24.5451C48.3763 25.3912 46.9378 28.4642 47.4598 30.7245C47.4997 31.0792 47.6198 31.4213 47.8117 31.7268C48.0037 32.0323 48.2628 32.2939 48.5711 32.4933C48.8794 32.6926 49.2293 32.825 49.5964 32.881C49.9635 32.937 50.339 32.9154 50.6964 32.8177C51.7756 32.4559 52.7101 31.7796 53.3693 30.8834C54.0286 29.9871 54.3799 28.9156 54.3739 27.8184Z" fill="#3A3B7B"/>
<path d="M60.971 36.2476C60.9141 36.6551 60.6909 37.0242 60.3504 37.2738C60.0099 37.5232 59.58 37.6328 59.1555 37.5781C58.7309 37.5235 58.3463 37.3092 58.0864 36.9824C57.8263 36.6557 57.7123 36.2431 57.7692 35.8356C57.8261 35.4281 58.0494 35.059 58.3898 34.8095C58.7303 34.5599 59.1601 34.4505 59.5847 34.5051C60.0093 34.5597 60.3939 34.774 60.6539 35.1008C60.9139 35.4276 61.028 35.8401 60.971 36.2476ZM59.9617 21.2276C60.1824 20.9042 60.506 20.6579 60.8845 20.5255C61.2628 20.393 61.6757 20.3816 62.0615 20.4927C62.4537 20.5869 62.8001 20.8075 63.043 21.1177C63.2859 21.4278 63.4103 21.8086 63.3956 22.1963C63.3444 22.8181 63.2475 23.4358 63.1056 24.0445C62.7228 26.1044 62.3515 28.1641 61.9455 30.2018C61.7599 31.0146 61.5163 31.7939 61.2494 32.6178C61.1566 32.8754 61.0015 33.1081 60.797 33.297C60.6699 33.4391 60.5075 33.5481 60.3248 33.6139C60.1421 33.6798 59.9451 33.7003 59.752 33.6737C59.5588 33.647 59.3757 33.5741 59.2198 33.4616C59.0638 33.349 58.94 33.2005 58.8597 33.0298C58.7218 32.7236 58.6469 32.3946 58.6393 32.0612C58.6393 30.6805 58.6393 29.2888 58.7321 27.8969C58.8898 25.9107 59.1999 23.9383 59.6601 21.9959C59.7143 21.7356 59.8164 21.4867 59.9617 21.261V21.2276Z" fill="#3A3B7B"/>
<path fill-rule="evenodd" clip-rule="evenodd" d="M7.92313 45.1945C7.78616 45.488 7.74859 45.8151 7.81553 46.13C7.86006 46.545 7.95786 46.9533 8.10671 47.3454C8.29255 47.8256 8.50051 48.3005 8.75692 48.8857C8.81589 49.0203 8.87751 49.1609 8.94199 49.3088C9.28778 50.1017 9.72165 51.115 10.3004 52.5814C10.4642 52.998 10.6096 53.418 10.7561 53.8408C10.8153 54.0117 10.8747 54.1831 10.9354 54.3549C11.1533 54.9657 11.5282 55.5145 12.0252 55.9494C12.2362 56.1884 12.5161 56.3626 12.83 56.4497C13.15 56.5386 13.4903 56.5329 13.8068 56.4336C14.1234 56.3342 14.4015 56.1457 14.6049 55.8925C14.8043 55.6443 14.9229 55.3452 14.946 55.0327C15.0754 54.424 15.0312 53.7928 14.818 53.206C14.4795 52.2316 14.0939 51.2557 13.6493 50.3013L13.6473 50.2971C12.9159 48.8038 12.1724 47.3209 11.3937 45.8374L11.3879 45.827C11.16 45.4405 10.8637 45.095 10.5125 44.806C10.2845 44.548 9.97 44.374 9.62268 44.3141C9.26796 44.2528 8.90212 44.3145 8.59046 44.4882C8.29564 44.6498 8.06193 44.8971 7.92313 45.1945Z" fill="#3A3B7B"/>
<path fill-rule="evenodd" clip-rule="evenodd" d="M19.0944 41.5178C17.9476 41.2327 16.7499 41.1911 15.5847 41.3961C14.6823 41.4814 13.7947 41.6812 13.1784 42.0769C12.8649 42.2783 12.6115 42.5369 12.4705 42.8657C12.3288 43.1962 12.3107 43.5742 12.4268 43.9953C12.6389 44.7668 12.9144 45.5169 13.1888 46.2645L13.2333 46.3856L13.2343 46.3883C14.0607 48.5604 14.895 50.7251 15.7368 52.8824C15.835 53.2223 15.9738 53.5503 16.1505 53.8596L16.1538 53.8654C16.3872 54.2497 16.6865 54.5934 17.0392 54.8821C17.2156 55.0408 17.4337 55.1506 17.6702 55.1997C17.9091 55.2492 18.1574 55.2348 18.3883 55.1581C18.6193 55.0814 18.8238 54.9453 18.9796 54.7646C19.133 54.5869 19.2334 54.3727 19.2702 54.1449C19.4224 53.5258 19.3736 52.8769 19.1304 52.2852C19.0545 52.0861 18.995 51.8826 18.9322 51.6684C18.9113 51.5969 18.8901 51.5242 18.8677 51.4502C20.7947 50.7273 22.8451 49.7552 23.5661 47.4937C23.8484 46.7122 23.872 45.866 23.6334 45.0711C23.3947 44.2752 22.9048 43.5699 22.2314 43.0521C21.3148 42.3272 20.2442 41.8035 19.0944 41.5178ZM15.9155 44.2916C15.9535 44.2811 15.9917 44.2713 16.03 44.2623C17.2846 44.073 18.5681 44.3252 19.6443 44.9723C20.1186 45.2889 20.3129 45.6406 20.3462 45.9791C20.3807 46.3276 20.2487 46.7052 19.9834 47.0682C19.4823 47.7539 18.5678 48.3027 17.7417 48.405C17.1395 47.0739 16.528 45.6889 15.9155 44.2916Z" fill="#3A3B7B"/>
<path d="M26.7401 39.0806C28.1058 38.4752 29.7975 38.3706 31.1214 38.7963C31.4548 38.8895 31.744 39.0911 31.9396 39.3666C32.134 39.6404 32.2237 39.9704 32.1938 40.3002C32.1918 40.5144 32.137 40.725 32.034 40.9151C31.9291 41.1086 31.7773 41.2749 31.5913 41.4002C31.4052 41.5254 31.1905 41.6059 30.9653 41.6347C30.74 41.6635 30.5109 41.6398 30.2971 41.5656L30.2809 41.56L30.2656 41.5523C30.1562 41.4973 30.0401 41.456 29.9199 41.4291L29.9123 41.4274C28.9811 41.19 28.1027 41.5834 27.7818 42.0667C27.6288 42.2972 27.6098 42.5298 27.7373 42.7414C27.8738 42.9681 28.2085 43.2224 28.886 43.4036C29.0723 43.4527 29.2632 43.5001 29.4569 43.5482C29.9926 43.6814 30.5493 43.8196 31.0876 44.0113L31.0896 44.0121C33.573 44.919 34.4978 46.7972 34.1812 48.5637C33.868 50.3107 32.3479 51.9006 30.0619 52.2757C29.2301 52.4526 28.3644 52.4182 27.5506 52.1757C26.7347 51.9324 25.9993 51.4887 25.4174 50.8881L25.4022 50.8725C25.2186 50.6462 25.095 50.3805 25.0402 50.0984C24.9898 49.8439 25.0164 49.5809 25.1166 49.3404C25.2162 49.1012 25.3847 48.8943 25.6022 48.7435C25.8319 48.5725 26.1088 48.47 26.3986 48.4486C26.6874 48.4273 26.9765 48.4875 27.2301 48.6218C27.4834 48.7393 27.7191 48.8891 27.9306 49.0673L27.9346 49.0706C28.3087 49.399 28.7614 49.4846 29.1955 49.4053C29.636 49.3249 30.0501 49.0748 30.3165 48.7429C30.5811 48.4131 30.6873 48.0214 30.5613 47.6411C30.4344 47.2581 30.0529 46.8289 29.2148 46.4701C28.9957 46.3808 28.7685 46.3088 28.5322 46.2387C28.4685 46.2198 28.4037 46.201 28.3381 46.1819C28.1634 46.131 27.9836 46.0785 27.8073 46.0207C27.6859 45.981 27.5655 45.9434 27.4462 45.9061C27.1202 45.8042 26.8023 45.7048 26.4964 45.5716C25.8307 45.3541 25.2555 44.9363 24.8565 44.3802C24.4559 43.8219 24.2543 43.1543 24.2818 42.477C24.2839 40.8265 25.367 39.6893 26.7401 39.0806Z" fill="#3A3B7B"/>
<path d="M44.055 38.9049C43.7902 38.7807 43.4974 38.7218 43.203 38.7334C42.9085 38.745 42.6217 38.8268 42.3684 38.9714C42.1168 39.1151 41.906 39.3162 41.755 39.557C41.6166 39.7597 41.5208 39.9864 41.473 40.2245C41.4252 40.4624 41.4264 40.7069 41.4763 40.9442C41.5256 41.2492 41.5803 41.5459 41.6343 41.8384C41.7237 42.3225 41.8107 42.7957 41.8681 43.2782L41.8702 43.2904C42.0009 44.047 42.0693 44.8123 42.0754 45.5791L42.076 45.59C42.1206 46.4182 41.8266 47.2303 41.257 47.8539L41.248 47.865C41.0626 48.0929 40.8148 48.2669 40.5322 48.3675C40.2497 48.4681 39.9436 48.4912 39.6481 48.4342C39.3527 48.3773 39.0796 48.2427 38.8593 48.0453C38.6391 47.8479 38.4802 47.5948 38.4009 47.3158C38.2316 46.7278 38.1337 46.123 38.1088 45.5135L38.3979 41.0954C38.4022 41.0377 38.407 40.9785 38.412 40.9187C38.423 40.7845 38.4343 40.6479 38.4389 40.5204C38.4458 40.3328 38.4399 40.1399 38.3944 39.9573C38.3478 39.7707 38.2592 39.5932 38.1019 39.442C37.9463 39.2923 37.7361 39.1819 37.4717 39.1068C36.9935 38.9739 36.5892 38.9781 36.2523 39.1154C35.9152 39.2526 35.6842 39.5074 35.5208 39.8017C35.3586 40.0936 35.2544 40.4391 35.1756 40.7852C35.1171 41.042 35.0701 41.3116 35.0255 41.5682C35.01 41.6566 34.9949 41.7435 34.9797 41.8278L34.9793 41.8303C34.7403 43.2376 34.6692 44.6664 34.7673 46.0892C34.7856 46.8581 34.9526 47.617 35.26 48.3273C35.6069 49.2437 36.2351 50.0377 37.0617 50.6045C37.8901 51.1724 38.8787 51.4854 39.8965 51.5019C40.9144 51.5184 41.9134 51.2378 42.7614 50.6971C43.608 50.1573 44.2641 49.3835 44.6429 48.4783C45.1729 47.3251 45.4217 46.071 45.3704 44.8115C45.3392 43.892 45.2871 42.9655 45.2352 42.0436C45.2098 41.5914 45.1844 41.1402 45.1616 40.6917C45.1501 40.242 44.9956 39.8064 44.7187 39.4434C44.5474 39.2139 44.3194 39.0288 44.055 38.9049Z" fill="#3A3B7B"/>
<path d="M53.4271 45.833C53.4002 45.8657 53.3719 45.8996 53.3424 45.9349C53.127 44.7423 52.9273 43.55 52.7274 42.356C52.6557 41.9276 52.5836 41.4973 52.5111 41.0683L52.503 41.0205L52.4765 40.9792C52.4266 40.9013 52.4216 40.825 52.4216 40.6623V40.6435L52.4186 40.6248C52.3645 40.2888 52.2061 39.976 51.9642 39.7275C51.7229 39.4797 51.4095 39.3072 51.0648 39.2323C50.7207 39.1509 50.3591 39.1688 50.0255 39.284C49.6928 39.3989 49.4028 39.6054 49.1916 39.8775C49.0161 40.0864 48.8722 40.3181 48.7644 40.5656C48.5198 41.0989 48.2729 41.6335 48.0254 42.1696L48.0212 42.1788C47.4033 43.5171 46.7812 44.8643 46.1773 46.2222L46.1754 46.2265C45.8046 47.107 45.4986 48.0347 45.1936 48.9595C45.1327 49.1441 45.0718 49.3286 45.0104 49.5126C44.9002 49.8045 44.8521 50.1145 44.8686 50.4244C44.8486 50.7018 44.9178 50.9786 45.067 51.2172C45.2192 51.4608 45.4471 51.6523 45.7186 51.7651C46.0064 51.8862 46.3281 51.9119 46.633 51.8382C46.9371 51.7645 47.2072 51.5961 47.4007 51.3592C47.6478 51.0675 47.8603 50.7493 48.0337 50.4122C48.5454 49.4077 49.0343 48.391 49.5211 47.3787C49.7094 46.9871 49.8924 46.6364 50.1006 46.2545C50.1149 46.3016 50.1295 46.3475 50.1446 46.3936C50.3628 47.3156 50.7311 48.1988 51.236 49.0108C51.3315 49.1828 51.4646 49.3331 51.6261 49.4514C51.7895 49.5712 51.9782 49.6552 52.1789 49.6979C52.3796 49.7406 52.5876 49.7408 52.7884 49.6985C52.9889 49.6563 53.1781 49.5721 53.3417 49.4529L53.6654 49.2204L56.1776 47.1894L56.0291 48.0981C55.8252 49.3471 55.6228 50.5858 55.4078 51.8247C55.2671 52.3738 55.2673 52.9474 55.4084 53.4964C55.4695 53.8053 55.6251 54.0897 55.8555 54.3134C56.0878 54.5389 56.3854 54.692 56.7095 54.7532C57.0337 54.8142 57.3695 54.7804 57.6734 54.6559C57.9728 54.5334 58.2275 54.3285 58.4056 54.0673C58.8198 53.574 59.0776 52.9768 59.1485 52.3468C59.2551 51.4571 59.3755 50.5553 59.4961 49.6538C59.6349 48.6146 59.7737 47.5758 59.891 46.5569L59.8913 46.5537C60.0042 45.4384 60.0588 44.3184 60.055 43.1978C60.0797 42.8437 59.9879 42.4909 59.7921 42.1894C59.5957 41.8869 59.3048 41.6517 58.961 41.5171C58.6033 41.3611 58.203 41.3193 57.8188 41.3982C57.4371 41.4765 57.0917 41.6696 56.8325 41.9493C56.3691 42.3607 55.9344 42.8008 55.5312 43.267L55.5284 43.2701C55.0882 43.7966 54.651 44.3334 54.2166 44.8668C53.9525 45.191 53.6891 45.5145 53.4271 45.833Z" fill="#3A3B7B"/>
</g>
<defs>
<clipPath id="clip0_69_1335">
<rect width="68.102" height="42.0204" fill="white" transform="translate(1.67383 14.4922)"/>
</clipPath>
</defs>
</svg>
