<svg width="81" height="70" viewBox="0 0 81 70" fill="none" xmlns="http://www.w3.org/2000/svg">
<g clip-path="url(#clip0_69_1331)">
<path d="M80.2932 28.5033C80.3015 28.4429 80.3015 28.3818 80.2932 28.3214C80.301 28.2722 80.301 28.222 80.2932 28.1726L79.7028 23.9233C79.6176 23.4149 79.3898 22.9397 79.0451 22.5509L78.9438 22.4352L78.7584 22.2533L68.5379 13.6223L68.8245 13.9034C68.59 13.6283 68.2956 13.4082 67.9628 13.2594C67.6301 13.1106 67.2675 13.0369 66.9019 13.0436H63.7986C63.294 13.0338 62.8009 13.1911 62.3988 13.4901C61.9765 13.1929 61.4681 13.0364 60.9483 13.0436H57.845C57.4381 13.0372 57.0366 13.1362 56.6812 13.3307C56.3258 13.5253 56.0291 13.8084 55.8213 14.1514C55.5007 14.6414 55.3803 15.2318 55.4839 15.8049L55.8718 18.4835C55.6148 18.3406 55.324 18.2665 55.0285 18.2685H40.0014C39.4622 18.2718 38.9355 18.4268 38.4834 18.7149C38.0463 18.9832 37.6954 19.3672 37.4715 19.8227L36.3078 18.8472C35.8498 18.4317 35.2452 18.2066 34.6213 18.2189H11.0432C10.5022 18.2286 9.97313 18.3768 9.50853 18.6488C8.8729 19.0135 8.40708 19.6066 8.20985 20.3022L0.721556 44.8559C0.58164 45.2604 0.567876 45.6968 0.682027 46.1091C0.796178 46.5213 1.03308 46.891 1.36245 47.1707C1.44828 47.242 1.5384 47.3083 1.63231 47.369C1.63231 47.369 1.48049 47.2698 1.39617 47.1872L11.6167 55.8347C12.0491 56.2249 12.6143 56.4431 13.202 56.4464H36.9656C37.5083 56.4326 38.0377 56.2786 38.5004 56C38.762 55.8598 38.9961 55.6751 39.1918 55.4543L39.2761 55.3386L39.4111 55.1733L39.5122 54.9914L40.6254 55.9339C41.0516 56.3086 41.6045 56.5148 42.177 56.5126H65.9911C66.5332 56.4949 67.0616 56.3412 67.5259 56.0662C67.7817 55.9174 68.0144 55.7336 68.2174 55.5205L68.3017 55.4048L68.4366 55.2395C68.5083 55.1348 68.5705 55.0242 68.6221 54.9087C68.6772 54.8085 68.7224 54.7033 68.757 54.5946L75.5876 32.174V31.9755C75.596 31.8986 75.596 31.821 75.5876 31.7441V31.5953C75.5958 31.546 75.5958 31.4958 75.5876 31.4464C75.5952 31.3419 75.5952 31.2369 75.5876 31.1322H77.7801C77.9708 31.1494 78.1628 31.1494 78.3535 31.1322H78.5054C78.6288 31.0962 78.7477 31.0462 78.8596 30.9835H79.0282L79.3317 30.752L79.4667 30.6528L79.7028 30.3551V30.256L79.8714 29.9749C79.862 29.9202 79.862 29.8642 79.8714 29.8096C79.8625 29.7827 79.8625 29.7537 79.8714 29.7269C79.9073 29.6299 79.9355 29.5304 79.9558 29.4292C79.9479 29.3966 79.9479 29.3626 79.9558 29.33C79.9476 29.2808 79.9476 29.2305 79.9558 29.1812C79.9558 29.1812 80.2932 28.5364 80.2932 28.5033Z" fill="black"/>
<path d="M35.3128 20.1041C35.4023 20.1834 35.4648 20.2878 35.492 20.4031C35.5192 20.5184 35.5096 20.6391 35.4646 20.7489L27.9932 45.2859C27.8991 45.5538 27.7066 45.7778 27.4535 45.9143C27.2475 46.0494 27.0091 46.1291 26.7619 46.1458H3.01533C2.81253 46.1362 2.62041 46.0538 2.47563 45.9143C2.3895 45.8362 2.32906 45.7347 2.30202 45.6228C2.27498 45.5109 2.28259 45.3936 2.32385 45.2859L9.81214 20.7489C9.89842 20.4776 10.0848 20.2477 10.335 20.1041C10.5443 19.9787 10.7816 19.9049 11.0265 19.8891H34.773C34.9743 19.891 35.1672 19.9679 35.3128 20.1041ZM22.9166 40.3422L27.386 25.6927H14.8718L10.4193 40.3422H22.9166ZM57.98 20.3521C58.061 20.4444 58.1623 20.5176 58.2762 20.5662C58.3901 20.6149 58.5136 20.6378 58.6378 20.6331H61.7242C61.8417 20.6343 61.9575 20.606 62.0609 20.551C62.1642 20.4961 62.2514 20.4162 62.3145 20.319C62.3693 20.243 62.408 20.1571 62.4283 20.0662C62.4485 19.9753 62.45 19.8813 62.4325 19.7899L61.8254 15.4248C61.7676 15.2228 61.6638 15.0362 61.5219 14.8792C61.4407 14.7869 61.3396 14.7137 61.2257 14.665C61.1118 14.6163 60.9881 14.5935 60.8641 14.5981H57.7777C57.6601 14.597 57.5442 14.6252 57.441 14.6802C57.3377 14.7352 57.2504 14.815 57.1874 14.9123C57.0693 15.1437 57.0187 15.2925 57.0693 15.4248L57.6933 19.7899C57.7253 20.0024 57.8258 20.1994 57.98 20.3521ZM67.7789 15.3917C67.721 15.1897 67.6172 15.0032 67.4753 14.8461C67.3977 14.7541 67.2994 14.681 67.1883 14.6322C67.0772 14.5835 66.9561 14.5605 66.8344 14.565H63.7311C63.6156 14.5618 63.5013 14.5893 63.4003 14.6446C63.2994 14.6999 63.2156 14.781 63.1578 14.8792C63.0456 15.0259 62.997 15.2101 63.0229 15.3917L63.6468 19.7568C63.686 19.9671 63.7854 20.1621 63.9336 20.319C64.0161 20.4095 64.1176 20.4815 64.2311 20.53C64.3447 20.5785 64.4674 20.6024 64.5913 20.6001H67.6946C67.8099 20.6016 67.9235 20.5733 68.0241 20.5182C68.1248 20.4631 68.2089 20.383 68.2681 20.2859C68.3267 20.212 68.3677 20.126 68.3881 20.0345C68.4086 19.9429 68.4079 19.8481 68.386 19.7568L67.7789 15.3917ZM55.2647 22.0055L54.9611 19.856H40.0014C39.7665 19.8687 39.5393 19.943 39.3436 20.071C39.2194 20.1374 39.1113 20.2294 39.0268 20.3408C38.9425 20.4521 38.8837 20.58 38.8546 20.7158L37.6065 24.8163C37.5567 24.9188 37.5396 25.0338 37.5577 25.1459C37.5758 25.2581 37.6281 25.3622 37.7077 25.4447C37.8499 25.5757 38.0355 25.6521 38.2305 25.6596H56.4116L51.9422 40.3091H33.8117C33.578 40.3143 33.3503 40.383 33.154 40.5075C32.9155 40.656 32.7413 40.8856 32.6649 41.1523L31.4 45.2529C31.3587 45.3581 31.3479 45.4724 31.3687 45.5833C31.3896 45.6942 31.4412 45.7973 31.518 45.8811C31.6558 46.021 31.8429 46.1038 32.0409 46.1126H55.855C56.1012 46.0919 56.3387 46.0124 56.5464 45.8811C56.7955 45.744 56.9823 45.5196 57.0693 45.2529L63.9167 22.8322H56.2092C56.0868 22.8346 55.9654 22.8123 55.8523 22.7668C55.7392 22.7213 55.6368 22.6535 55.5515 22.5677C55.412 22.4177 55.3134 22.2358 55.2647 22.0386V22.0055Z" fill="white"/>
</g>
<defs>
<clipPath id="clip0_69_1331">
<rect width="79.6939" height="43.4694" fill="white" transform="translate(0.605469 13.0432)"/>
</clipPath>
</defs>
</svg>
