<svg width="71" height="70" viewBox="0 0 71 70" fill="none" xmlns="http://www.w3.org/2000/svg">
<g clip-path="url(#clip0_69_1328)">
<path fill-rule="evenodd" clip-rule="evenodd" d="M20.9458 20.4542L6.47656 34.7779C9.37067 37.643 12.6767 40.0575 16.2813 41.9466C17.2776 44.5629 18.8393 47.0164 20.9664 49.1221C28.9689 57.0441 41.9435 57.0441 49.9459 49.1221C52.0731 47.0164 53.6348 44.5629 54.6311 41.9464C58.2356 40.0575 61.5417 37.643 64.4357 34.7779L49.9783 20.4658C49.9675 20.4551 49.9568 20.4444 49.9459 20.4337C41.9435 12.5117 28.9689 12.5117 20.9664 20.4337C20.9595 20.4405 20.9526 20.4474 20.9458 20.4542ZM48.5615 44.5308C44.3449 45.9395 39.9186 46.661 35.4562 46.661C30.9937 46.661 26.5675 45.9395 22.351 44.5308C22.8079 45.1309 23.3123 45.7067 23.8643 46.2532C30.2663 52.5909 40.646 52.5909 47.048 46.2532C47.6001 45.7067 48.1046 45.1309 48.5615 44.5308ZM24.1615 23.0157C25.2487 23.7267 26.4047 24.3351 27.6143 24.8312C30.1004 25.8506 32.7651 26.3753 35.4562 26.3753C38.1472 26.3753 40.8119 25.8506 43.298 24.8312C44.5076 24.3351 45.6636 23.7267 46.7509 23.0156C40.4288 17.0605 30.4835 17.0606 24.1615 23.0157Z" fill="#3B4158"/>
</g>
<defs>
<clipPath id="clip0_69_1328">
<rect width="57.9592" height="40.5714" fill="white" transform="translate(6.47656 14.4922)"/>
</clipPath>
</defs>
</svg>
