<svg width="71" height="70" viewBox="0 0 71 70" fill="none" xmlns="http://www.w3.org/2000/svg">
<g clip-path="url(#clip0_69_1351)">
<path d="M61.9883 17.164C61.9883 17.8392 62.5424 18.3866 63.226 18.3866H64.4636C65.1472 18.3866 65.7013 17.8392 65.7013 17.164C65.7013 16.4888 65.1472 15.9414 64.4636 15.9414H63.226C62.5424 15.9414 61.9883 16.4888 61.9883 17.164Z" fill="#212326"/>
<path d="M26.0957 55.0636H32.1081L30.3577 53.3346C29.8936 52.8761 29.2639 52.6185 28.6075 52.6185H26.0957C16.526 52.6185 8.76831 44.9553 8.76831 35.5024C8.76831 26.0494 16.526 18.3863 26.0957 18.3863H45.8984C55.4681 18.3863 63.2258 26.0494 63.2258 35.5024C63.2258 44.9553 55.4681 52.6185 45.8984 52.6185H38.4906C37.5058 52.6185 36.5614 52.232 35.8651 51.5443L33.8145 49.5186C32.654 48.3722 31.0798 47.7282 29.4386 47.7282H26.0957C19.2602 47.7282 13.719 42.2545 13.719 35.5024C13.719 28.7502 19.2602 23.2766 26.0957 23.2766H45.8984C52.7339 23.2766 58.2751 28.7502 58.2751 35.5024C58.2751 42.2545 52.7339 47.7282 45.8984 47.7282H41.1419C40.1571 47.7282 39.2127 47.3417 38.5164 46.6539L36.4657 44.6283C35.3051 43.4819 33.7311 42.8378 32.0899 42.8378H26.0957C21.9944 42.8378 18.6697 39.5536 18.6697 35.5024C18.6697 31.4512 21.9944 28.1669 26.0957 28.1669H45.8984C49.9997 28.1669 53.3244 31.4512 53.3244 35.5024C53.3244 39.5042 50.0802 42.7576 46.0481 42.8364L46.0473 42.8378H44.2361C43.2513 42.8378 42.3069 42.4514 41.6105 41.7636L39.5599 39.738C38.6076 38.7973 37.377 38.1949 36.0592 38.009L35.9971 37.9475H26.0957C24.7286 37.9475 23.6203 36.8528 23.6203 35.5024C23.6203 34.152 24.7286 33.0572 26.0957 33.0572H45.8984C47.2655 33.0572 48.3738 34.152 48.3738 35.5024C48.3738 36.8528 47.2655 37.9475 45.8984 37.9475H40.9477L42.6981 39.6766C43.1623 40.1351 43.7919 40.3927 44.4484 40.3927H45.8984C48.6326 40.3927 50.8491 38.2032 50.8491 35.5024C50.8491 32.8016 48.6326 30.6121 45.8984 30.6121H26.0957C23.3615 30.6121 21.145 32.8016 21.145 35.5024C21.145 38.2032 23.3615 40.3927 26.0957 40.3927H35.184C36.1688 40.3927 37.1132 40.7791 37.8096 41.4669L39.8603 43.4926C41.0208 44.6389 42.5948 45.283 44.2361 45.283H46.5172V45.2642C51.6973 44.9487 55.7998 40.6987 55.7998 35.5024C55.7998 30.1007 51.3667 25.7218 45.8984 25.7218H26.0957C20.6274 25.7218 16.1943 30.1007 16.1943 35.5024C16.1943 40.9041 20.6274 45.283 26.0957 45.283H32.0899C33.0747 45.283 34.0191 45.6694 34.7154 46.3572L36.7661 48.3829C37.9266 49.5293 39.5006 50.1733 41.1419 50.1733H45.8984C54.101 50.1733 60.7505 43.6049 60.7505 35.5024C60.7505 27.3998 54.101 20.8315 45.8984 20.8315H26.0957C17.8931 20.8315 11.2436 27.3998 11.2436 35.5024C11.2436 43.6049 17.8931 50.1733 26.0957 50.1733H29.4386C30.4234 50.1733 31.3678 50.5597 32.0641 51.2475L34.1148 53.2732C35.2753 54.4196 36.8494 55.0636 38.4906 55.0636H45.8984C56.8352 55.0636 65.7011 46.3058 65.7011 35.5024C65.7011 24.699 56.8352 15.9412 45.8984 15.9412L26.0957 15.9412C15.1589 15.9412 6.29297 24.699 6.29297 35.5024C6.29297 46.3058 15.159 55.0636 26.0957 55.0636Z" fill="#212326"/>
</g>
<defs>
<clipPath id="clip0_69_1351">
<rect width="59.4082" height="39.1224" fill="white" transform="translate(6.29297 15.9412)"/>
</clipPath>
</defs>
</svg>
