<svg width="59" height="58" viewBox="0 0 59 58" fill="none" xmlns="http://www.w3.org/2000/svg">
<g clip-path="url(#clip0_69_1326)">
<path fill-rule="evenodd" clip-rule="evenodd" d="M14.6939 0.0205078C22.6963 0.0205078 29.1837 6.50781 29.1837 14.5103V0.0205078H43.6735C51.6759 0.0205078 58.1633 6.50781 58.1633 14.5103C58.1633 22.5127 51.6759 29.0001 43.6735 29.0001C51.6759 29.0001 58.1633 35.4875 58.1633 43.4899C58.1633 47.4634 56.5638 51.0634 53.9736 53.6812L53.9194 53.7358L53.8713 53.7836C51.253 56.3776 47.6504 57.9797 43.6735 57.9797C39.7237 57.9797 36.143 56.3993 33.5292 53.8363C33.4953 53.803 33.4614 53.7694 33.4276 53.7358C33.3959 53.704 33.3643 53.6722 33.3328 53.6401C30.7666 51.0259 29.1837 47.4427 29.1837 43.4899C29.1837 51.4923 22.6963 57.9797 14.6939 57.9797C6.6914 57.9797 0.204102 51.4923 0.204102 43.4899V29.0001H14.6939C6.6914 29.0001 0.204102 22.5127 0.204102 14.5103C0.204102 6.50781 6.6914 0.0205078 14.6939 0.0205078ZM26.2857 14.5103C26.2857 20.9123 21.0959 26.1021 14.6939 26.1021V2.91847C21.0959 2.91847 26.2857 8.10831 26.2857 14.5103ZM55.2653 43.4899C55.2653 37.0879 50.0755 31.8981 43.6735 31.8981C37.2715 31.8981 32.0817 37.0879 32.0817 43.4899H55.2653ZM3.10206 31.8981V43.4899C3.10206 49.8919 8.2919 55.0817 14.6939 55.0817C21.0959 55.0817 26.2857 49.8919 26.2857 43.4899V31.8981H3.10206ZM32.0817 26.1021V2.91847H43.6735C50.0755 2.91847 55.2653 8.10831 55.2653 14.5103C55.2653 20.9123 50.0755 26.1021 43.6735 26.1021H32.0817Z" fill="#263238"/>
</g>
<defs>
<clipPath id="clip0_69_1326">
<rect width="57.9592" height="57.9592" fill="white" transform="translate(0.204102 0.0205078)"/>
</clipPath>
</defs>
</svg>
