<svg width="241" height="33" viewBox="0 0 241 33" fill="none" xmlns="http://www.w3.org/2000/svg">
<path d="M225.994 17.0486C225.665 17.076 225.333 17.095 225.011 17.1358C224.802 17.1614 224.712 17.0873 224.571 17.0487C224.525 17.0353 224.474 17.0084 224.431 17.0118C224.106 17.0392 223.78 17.0699 223.455 17.1007C223.356 17.1666 223.295 17.2543 223.142 17.2865C222.993 17.317 222.817 17.3172 222.651 17.3326C222.432 17.3514 222.213 17.3703 221.994 17.3874C221.884 17.396 221.795 17.4281 221.759 17.4888C221.753 17.4989 221.826 17.5241 221.866 17.5392C222 17.5896 222.131 17.6468 222.277 17.6854C222.418 17.7223 222.59 17.6614 222.74 17.7084C223.077 17.8142 223.081 17.8125 223.336 17.7919C223.555 17.7731 223.774 17.7526 223.994 17.7389C224.037 17.7354 224.087 17.7607 224.134 17.7741C224.274 17.811 224.365 17.8952 224.571 17.8629C224.727 17.8374 224.899 17.8321 225.062 17.8184C225.199 17.8672 225.326 17.9226 225.473 17.9612C225.61 17.9981 225.65 18.0267 225.578 18.0757C225.512 18.1213 225.419 18.14 225.296 18.1435C225.187 18.1453 225.077 18.1606 224.968 18.1692C224.911 18.1743 224.858 18.1777 224.805 18.1829C224.596 18.2017 224.596 18.2017 224.212 18.0943C224.062 18.0523 223.893 18.1115 223.749 18.0712C223.653 18.0444 223.569 18.004 223.475 17.9755C223.435 17.9638 223.372 17.9621 223.322 17.9656C223.156 17.9776 222.99 17.9862 222.831 18.0083C222.718 18.0236 222.652 18.0709 222.666 18.1181C222.67 18.1366 222.75 18.1635 222.797 18.1651C222.903 18.1684 223.016 18.1446 223.119 18.1563C223.219 18.168 223.323 18.2016 223.396 18.2385C223.547 18.3159 223.716 18.2466 223.859 18.2666C224.009 18.2884 224.133 18.3556 224.276 18.3959C224.313 18.406 224.383 18.389 224.439 18.3839C224.602 18.3719 224.765 18.3616 224.927 18.3496C225.064 18.3983 225.211 18.4419 225.335 18.4974C225.56 18.5983 225.799 18.6367 226.088 18.5875C226.25 18.5603 226.41 18.5702 226.541 18.6358C226.675 18.7031 226.828 18.6961 226.997 18.6824C227.153 18.6688 227.312 18.6315 227.472 18.6785C227.82 18.7825 227.823 18.7876 228.231 18.7466C228.354 18.7347 228.447 18.7312 228.541 18.7699C228.628 18.8051 228.721 18.8354 228.812 18.869C228.974 18.857 229.14 18.845 229.303 18.8313C229.512 18.8125 229.629 18.8359 229.68 18.9303C229.711 18.9875 229.725 19.0398 229.799 19.0784C229.886 19.1255 229.979 19.1237 230.105 19.1101C230.225 19.0981 230.311 19.0795 230.36 19.0187C230.379 18.9934 230.419 18.9698 230.455 18.9495C230.485 18.9343 230.531 18.9107 230.558 18.914C230.608 18.9207 230.674 18.9391 230.691 18.961C230.857 19.1648 230.857 19.1665 231.025 19.2252C231.208 19.2908 231.399 19.3495 231.566 19.4235C231.717 19.489 231.866 19.4602 232.029 19.46C232.152 19.4598 232.232 19.5036 232.223 19.5474C232.217 19.5727 232.171 19.6098 232.131 19.6132C231.806 19.6473 231.477 19.6764 231.148 19.7004C231.108 19.7038 231.058 19.6736 231.011 19.6585C230.918 19.6282 230.834 19.5811 230.734 19.5711C230.634 19.5612 230.518 19.5866 230.409 19.5951C230.299 19.6037 230.183 19.6258 230.083 19.6124C229.983 19.5991 229.903 19.5503 229.809 19.5184C229.766 19.5032 229.705 19.4814 229.669 19.4865C229.427 19.5273 229.247 19.4719 229.073 19.3979C229.036 19.3828 228.972 19.3728 228.926 19.3762C228.541 19.4053 228.159 19.4395 227.774 19.472C227.618 19.4857 227.491 19.4269 227.456 19.3274C227.438 19.2718 227.404 19.2163 227.403 19.1606C227.402 19.0595 227.218 19.0041 227.085 19.0161C226.866 19.0332 226.644 19.047 226.428 19.0725C226.252 19.093 226.102 19.0729 225.981 19.0124C225.841 18.9435 225.681 18.9571 225.522 18.9759C225.403 18.9895 225.37 19.0452 225.379 19.1851C225.388 19.298 225.332 19.3335 225.116 19.3523C224.844 19.3762 224.568 19.4002 224.292 19.419C224.249 19.4225 224.199 19.3939 224.155 19.3788C224.062 19.3485 223.978 19.2998 223.878 19.2898C223.778 19.2781 223.662 19.3035 223.553 19.3138C223.443 19.3223 223.327 19.3461 223.227 19.3344C223.127 19.3227 223.043 19.2723 222.953 19.2404C222.91 19.2252 222.856 19.2034 222.813 19.2068C222.594 19.2206 222.375 19.2411 222.156 19.2599C221.91 19.2804 221.91 19.2804 221.559 19.1764C221.399 19.1294 221.24 19.1666 221.084 19.1803C220.918 19.194 220.762 19.201 220.631 19.1337C220.544 19.09 220.447 19.0631 220.344 19.0717C220.069 19.0922 219.796 19.1179 219.521 19.1384C219.474 19.1419 219.411 19.1335 219.374 19.1184C219.197 19.0478 219.023 18.9924 218.778 19.0281C218.566 19.0587 218.336 19.0607 218.124 19.0896C218.008 19.1049 217.955 19.1589 217.979 19.201C217.993 19.2229 218.063 19.2481 218.11 19.2481C218.216 19.2496 218.332 19.2242 218.432 19.2342C218.638 19.2542 218.744 19.3956 219.012 19.3565C219.172 19.3327 219.338 19.3241 219.504 19.3171C219.547 19.3154 219.594 19.3474 219.641 19.3642C219.774 19.4095 219.892 19.4683 220.084 19.4378C220.243 19.414 220.413 19.407 220.575 19.3933C220.834 19.3711 220.834 19.3728 221.172 19.4752C221.332 19.5239 221.491 19.4849 221.647 19.4729C221.763 19.4643 221.873 19.4474 221.966 19.4708C222.11 19.5061 222.214 19.5868 222.39 19.5815C222.556 19.5763 222.719 19.5525 222.885 19.5438C222.988 19.5387 223.085 19.5655 223.168 19.6109C223.256 19.6563 223.349 19.6764 223.462 19.6662C223.624 19.6525 223.79 19.6354 223.957 19.6268C224.003 19.625 224.057 19.6402 224.1 19.6536C224.193 19.6838 224.284 19.7191 224.374 19.751C224.537 19.7407 224.703 19.7371 224.862 19.7167C224.985 19.7014 225.071 19.708 225.172 19.7416C225.299 19.7869 225.403 19.8677 225.609 19.8287C225.711 19.81 225.831 19.8149 225.934 19.7979C226.06 19.7759 226.146 19.7842 226.237 19.8347C226.408 19.9305 226.621 19.9319 226.84 19.8946C227.078 19.8538 227.259 19.9008 227.439 19.9748C227.63 20.0521 227.63 20.0504 227.779 20.2373C227.823 20.2912 227.947 20.3163 228.049 20.3061C228.222 20.289 228.372 20.2972 228.499 20.3611C228.633 20.4301 228.793 20.4214 228.955 20.4027C229.171 20.3771 229.387 20.355 229.564 20.4525C229.651 20.4996 229.745 20.5113 229.861 20.4993C230.19 20.4686 230.522 20.4496 230.844 20.4121C231.039 20.3883 231.153 20.4421 231.287 20.4874C231.467 20.5496 231.664 20.605 231.666 20.7381C231.667 20.76 231.714 20.7853 231.754 20.8021C231.841 20.8374 231.934 20.8676 232.025 20.9012C232.158 20.9516 232.289 20.9936 232.471 20.9664C232.63 20.9442 232.8 20.9373 232.962 20.9219C233.125 20.9065 233.275 20.8979 233.422 20.9618C233.593 21.0341 233.773 21.103 233.967 21.1567C234.104 21.1953 234.282 21.1293 234.429 21.1814C234.52 21.2133 234.606 21.2502 234.703 21.2771C234.743 21.2888 234.806 21.2803 234.86 21.2769C234.969 21.27 235.082 21.2648 235.188 21.2478C235.311 21.2292 235.404 21.2324 235.498 21.2711C235.585 21.3064 235.672 21.3551 235.772 21.3651C235.922 21.3801 236.087 21.3125 236.238 21.3898C236.315 21.4285 236.412 21.4655 236.512 21.4771C236.612 21.4888 236.727 21.4634 236.834 21.4649C236.88 21.4649 236.937 21.4918 236.964 21.5136C236.981 21.5254 236.958 21.5575 236.935 21.5744C236.906 21.5946 236.863 21.6217 236.82 21.6251C236.491 21.6558 236.162 21.6815 235.834 21.7106C235.638 21.7277 235.638 21.7277 235.241 21.622C235.147 21.5968 235.044 21.602 234.928 21.6139C234.772 21.6293 234.613 21.6582 234.45 21.628C234.235 21.5137 233.972 21.5039 233.694 21.548C233.578 21.5667 233.471 21.5669 233.384 21.535C233.2 21.4711 233.007 21.4124 232.843 21.3367C232.715 21.2779 232.655 21.2729 232.604 21.3539C232.587 21.3792 232.571 21.4062 232.575 21.4298C232.596 21.514 232.634 21.5966 232.655 21.6808C232.662 21.7044 232.636 21.7314 232.62 21.7567C232.568 21.8276 232.498 21.8226 232.381 21.7638C232.263 21.7049 232.123 21.6663 231.937 21.6935C231.778 21.7173 231.605 21.7142 231.446 21.7397C231.201 21.777 231.027 21.7233 230.85 21.6511C230.813 21.6359 230.75 21.6276 230.703 21.631C230.208 21.6704 229.717 21.7148 229.222 21.7542C229.116 21.7628 229.019 21.7376 228.935 21.6922C228.848 21.6468 228.751 21.6233 228.645 21.6319C228.207 21.6678 227.769 21.7004 227.331 21.7448C227.151 21.7636 227.008 21.7418 226.884 21.683C226.79 21.6392 226.704 21.6259 226.587 21.6311C226.461 21.6363 226.372 21.6533 226.309 21.7022C226.25 21.7495 226.294 21.7781 226.427 21.815C226.571 21.8553 226.705 21.9074 226.842 21.9544C226.951 21.9475 227.061 21.9339 227.167 21.9354C227.214 21.9354 227.258 21.9657 227.304 21.9825C227.438 22.0312 227.562 22.0799 227.751 22.0527C227.91 22.0289 228.08 22.0237 228.242 22.0083C228.468 21.9895 228.468 21.9895 228.835 22.0952C228.929 22.122 229.028 22.1202 229.148 22.1049C229.251 22.093 229.358 22.1164 229.431 22.1669C229.462 22.1871 229.452 22.2209 229.391 22.3322C229.392 22.4148 229.461 22.3776 229.484 22.3236C229.519 22.246 229.449 22.2209 229.317 22.2632C229.224 22.2936 229.178 22.3375 229.202 22.3729C229.216 22.3914 229.279 22.4149 229.391 22.3322C229.682 22.2307 229.904 22.2186 230.117 22.1914C230.243 22.176 230.323 22.1827 230.423 22.2264C230.544 22.2785 230.664 22.334 230.86 22.3068C231.072 22.2761 231.298 22.2725 231.514 22.2469C231.713 22.2231 231.817 22.2971 231.944 22.3408C232.098 22.3929 232.266 22.3336 232.406 22.3638C232.553 22.394 232.657 22.468 232.827 22.4813C233.072 22.4355 233.23 22.5196 233.417 22.5749C233.564 22.6169 233.736 22.5796 233.892 22.5609C234.068 22.5404 234.215 22.5588 234.339 22.6193C234.479 22.6882 234.635 22.6729 234.795 22.6575C235.166 22.6233 235.18 22.6182 235.397 22.7107C235.554 22.7779 235.704 22.7474 235.86 22.7388C235.997 22.7841 236.13 22.8328 236.274 22.8731C236.311 22.8832 236.38 22.8662 236.437 22.8611C236.599 22.8474 236.765 22.8337 236.928 22.82C237.038 22.8115 237.154 22.786 237.254 22.796C237.353 22.8077 237.437 22.8565 237.528 22.8884C237.618 22.9203 237.711 22.9522 237.798 22.9858C237.932 23.0362 238.059 23.0782 238.245 23.0527C238.404 23.0306 238.57 23.0236 238.736 23.0083C238.945 22.9895 238.939 22.9945 239.329 23.0952C239.54 23.1505 239.755 23.0828 239.967 23.0758C240.074 23.0723 240.177 23.0907 240.251 23.1395C240.281 23.1597 240.272 23.1935 240.282 23.2221C239.734 23.2683 239.183 23.3077 238.642 23.364C238.433 23.3862 238.322 23.3257 238.208 23.2752C238.021 23.1946 237.777 23.3129 237.599 23.2086C237.492 23.1463 237.338 23.1111 237.156 23.1417C237.05 23.1587 236.937 23.1571 236.827 23.1724C236.549 23.2099 236.293 23.2119 236.068 23.0959C235.991 23.0555 235.881 23.0337 235.801 22.9951C235.707 22.953 235.617 22.9295 235.507 22.9381C235.012 22.9792 234.521 23.0202 234.03 23.0647C233.987 23.0681 233.944 23.0934 233.907 23.112C233.815 23.1593 233.846 23.1964 233.996 23.2266C234.046 23.2366 234.086 23.2585 234.133 23.2753C234.223 23.3072 234.307 23.3576 234.407 23.3693C234.507 23.381 234.623 23.3572 234.732 23.3487C234.842 23.3401 234.958 23.3147 235.058 23.3247C235.158 23.3363 235.241 23.3851 235.335 23.4154C235.378 23.4305 235.432 23.4557 235.475 23.454C235.695 23.4436 235.91 23.4248 236.129 23.4093C236.267 23.4546 236.384 23.5202 236.547 23.5352C236.65 23.5452 236.76 23.5265 236.866 23.5297C236.913 23.5314 236.973 23.5566 236.996 23.5785C237.01 23.5919 236.967 23.6257 236.934 23.6426C236.809 23.7068 236.636 23.6952 236.48 23.7156C236.311 23.7378 236.158 23.7312 236.027 23.6657C235.94 23.6219 235.843 23.5985 235.737 23.607C235.461 23.6293 235.189 23.6549 234.914 23.6738C234.867 23.6772 234.81 23.6621 234.767 23.6504C234.416 23.548 234.416 23.5446 234.171 23.5668C233.809 23.5993 233.809 23.5993 233.565 23.5103C233.518 23.4935 233.467 23.4615 233.428 23.4633C233.042 23.4907 232.661 23.5181 232.279 23.5574C232.153 23.5693 232.066 23.5695 231.973 23.5257C231.892 23.4888 231.798 23.4467 231.699 23.4367C231.595 23.4268 231.483 23.4522 231.373 23.4607C231.264 23.4693 231.148 23.4914 231.051 23.478C230.951 23.4646 230.864 23.4176 230.777 23.384C230.687 23.3487 230.59 23.3505 230.467 23.3641C230.089 23.4033 230.086 23.3983 229.708 23.2943C229.665 23.2825 229.608 23.2691 229.562 23.2725C229.286 23.2931 229.014 23.3187 228.738 23.3393C228.632 23.3479 228.529 23.3261 228.455 23.2773C228.425 23.2571 228.434 23.2234 228.413 23.1576C228.39 23.1425 228.417 23.1695 228.424 23.1947C228.473 23.1913 228.533 23.1946 228.57 23.1811C228.662 23.1489 228.708 23.1067 228.684 23.0713C228.671 23.0528 228.607 23.0293 228.567 23.0293C228.494 23.0294 228.432 23.0666 228.413 23.1576C228.205 23.2135 227.982 23.2256 227.766 23.2529C227.64 23.2699 227.56 23.2615 227.46 23.2178C227.339 23.1641 227.216 23.1119 227.02 23.1392C226.808 23.1698 226.582 23.1751 226.363 23.199C226.11 23.2263 225.998 23.0747 225.786 23.0783C225.566 23.082 225.347 23.1109 225.128 23.1314C224.936 23.1485 224.936 23.1485 224.535 23.0394C224.388 22.9992 224.216 23.0584 224.073 23.0164C223.976 22.9896 223.892 22.9492 223.798 22.9207C223.758 22.9089 223.695 22.909 223.645 22.9124C223.37 22.933 223.091 22.9468 222.825 22.9843C222.524 23.0285 222.293 22.9816 222.076 22.8824C221.804 22.9013 221.528 22.9117 221.259 22.9441C221.063 22.9679 220.949 22.9124 220.816 22.8671C220.769 22.852 220.729 22.8267 220.679 22.8201C220.629 22.8134 220.569 22.8269 220.516 22.8321C220.297 22.8509 220.071 22.8596 219.859 22.8902C219.597 22.9293 219.495 22.7912 219.292 22.7746C219.157 22.8573 219.085 22.9704 218.816 22.9791C218.597 22.9861 218.378 23.0134 218.159 23.0322C218.049 23.0408 217.94 23.051 217.83 23.0596C217.654 23.075 217.572 23.1408 217.61 23.2419C217.631 23.2975 217.648 23.3531 217.666 23.4087C217.701 23.5081 217.619 23.5925 217.48 23.6045C217.094 23.637 216.713 23.6712 216.327 23.7003C216.225 23.7089 216.124 23.6803 216.04 23.6349C215.953 23.5895 215.857 23.5694 215.75 23.578C215.365 23.6105 214.984 23.6447 214.598 23.6738C214.555 23.6772 214.498 23.6604 214.455 23.647C214.361 23.6168 214.271 23.5815 214.181 23.5496C213.962 23.565 213.746 23.5754 213.53 23.5959C213.181 23.6267 213.181 23.6284 212.924 23.536C212.877 23.5192 212.83 23.4872 212.787 23.489C212.621 23.4959 212.458 23.513 212.292 23.5284C211.804 23.5728 211.804 23.5728 211.661 23.5224C211.53 23.4754 211.413 23.4182 211.217 23.4454C211.005 23.476 210.779 23.4864 210.56 23.5035C210.397 23.5155 210.235 23.5292 210.072 23.5328C210.028 23.5345 209.981 23.5026 209.935 23.4858C209.801 23.4337 209.671 23.3917 209.488 23.4206C209.382 23.4376 209.269 23.4411 209.16 23.4497C208.874 23.4736 208.874 23.4736 208.404 23.3731C208.357 23.363 208.3 23.3513 208.254 23.3564C207.869 23.3872 207.487 23.4214 207.102 23.4505C207.055 23.454 206.999 23.4439 206.952 23.4355C206.425 23.3384 206.425 23.3384 205.867 23.3863C205.655 23.4035 205.648 23.4102 205.424 23.3211C205.324 23.2825 205.241 23.2641 205.124 23.276C204.686 23.317 204.245 23.3445 203.81 23.3923C203.614 23.4127 203.5 23.3623 203.366 23.317C203.32 23.3019 203.269 23.2682 203.229 23.27C202.791 23.3025 202.353 23.3418 201.915 23.3744C201.875 23.3778 201.824 23.3442 201.778 23.3291C201.687 23.2988 201.6 23.2534 201.5 23.2434C201.397 23.2335 201.284 23.2589 201.172 23.2675C200.896 23.2897 200.896 23.288 200.575 23.189C200.532 23.1756 200.475 23.1571 200.432 23.1605C199.994 23.1948 199.552 23.224 199.117 23.2734C198.868 23.3007 198.698 23.252 198.521 23.1814C198.484 23.1663 198.421 23.1596 198.374 23.1631C197.879 23.2024 197.388 23.2469 196.893 23.2863C196.791 23.2948 196.69 23.2663 196.606 23.2226C196.472 23.1536 196.316 23.1622 196.15 23.1776C195.769 23.2135 195.765 23.2118 195.538 23.1312C195.491 23.1144 195.451 23.0925 195.401 23.0842C195.354 23.0758 195.295 23.0809 195.245 23.0844C195.026 23.1015 194.806 23.1203 194.587 23.1391C194.368 23.1579 194.146 23.1683 193.93 23.1973C193.665 23.233 193.537 23.1236 193.35 23.0732C193.077 23.0955 192.798 23.1093 192.53 23.1451C192.324 23.1723 192.226 23.0982 192.09 23.0596C192.043 23.0462 191.992 23.0176 191.949 23.021C191.454 23.0587 190.96 23.0998 190.469 23.1459C190.349 23.1562 190.269 23.1428 190.169 23.1025C189.945 23.0117 189.935 23.0151 189.563 23.0493C189.4 23.0647 189.244 23.0784 189.103 23.0094C188.979 22.9472 188.83 22.9322 188.654 22.9527C188.438 22.9782 188.216 22.992 187.996 23.0091C187.777 23.0279 187.558 23.0535 187.339 23.0622C187.163 23.0708 187.055 22.9918 186.915 22.9515C186.872 22.9397 186.812 22.9381 186.762 22.9415C186.543 22.957 186.317 22.9691 186.105 22.998C185.846 23.0337 185.702 22.9412 185.518 22.8875C185.478 22.8757 185.411 22.8826 185.362 22.8877C184.976 22.9185 184.595 22.9527 184.21 22.9852C184.073 22.9398 183.932 22.8962 183.795 22.8509C183.576 22.868 183.357 22.8868 183.138 22.9039C182.972 22.9176 182.802 22.9229 182.647 22.9484C182.444 22.9823 182.343 22.9032 182.206 22.8646C182.16 22.8512 182.109 22.8226 182.066 22.826C181.791 22.8449 181.515 22.8655 181.243 22.8945C180.984 22.9235 180.879 22.7719 180.666 22.7738C180.446 22.7758 180.221 22.798 180.008 22.8286C179.763 22.8643 179.589 22.8106 179.412 22.7383C179.375 22.7232 179.312 22.7148 179.265 22.7183C178.99 22.7388 178.718 22.7645 178.442 22.785C178.396 22.7885 178.339 22.7801 178.292 22.7701C177.765 22.6713 177.765 22.6696 177.536 22.6901C177.374 22.7038 177.208 22.7208 177.042 22.7295C176.995 22.7329 176.938 22.7178 176.895 22.7044C176.548 22.602 176.548 22.6003 176.299 22.6208C176.079 22.6396 175.86 22.6585 175.641 22.6773C175.504 22.6319 175.364 22.5883 175.227 22.543C174.955 22.5652 174.676 22.5824 174.407 22.6131C174.281 22.6267 174.198 22.6218 174.101 22.5797C173.98 22.5293 173.859 22.4705 173.66 22.4994C173.448 22.53 173.222 22.5336 173.006 22.5592C172.748 22.5899 172.639 22.4366 172.429 22.4386C172.21 22.4405 171.984 22.4627 171.772 22.4933C171.527 22.529 171.353 22.4753 171.176 22.403C171.139 22.3879 171.076 22.3796 171.029 22.383C170.425 22.4326 169.824 22.4822 169.22 22.5353C168.848 22.5677 168.848 22.5694 168.138 22.4776C168.088 22.4709 168.035 22.4643 167.985 22.4677C167.766 22.4831 167.54 22.4952 167.328 22.5241C167.069 22.5599 166.925 22.469 166.741 22.4136C166.701 22.4019 166.638 22.4087 166.585 22.4121C166.419 22.4241 166.256 22.4395 166.09 22.4532C165.871 22.472 165.652 22.4908 165.433 22.5096C165.296 22.466 165.155 22.4206 165.018 22.377C164.746 22.3992 164.467 22.4114 164.198 22.4471C163.993 22.4744 163.895 22.4037 163.758 22.3634C163.712 22.35 163.661 22.3214 163.618 22.3231C163.123 22.3608 162.629 22.4002 162.137 22.448C161.935 22.4685 161.841 22.3927 161.704 22.3541C161.657 22.3424 161.604 22.3206 161.56 22.324C161.232 22.348 160.903 22.3771 160.574 22.4061C160.388 22.4232 160.388 22.4232 159.981 22.3192C159.934 22.3075 159.881 22.2957 159.835 22.2992C158.792 22.3847 157.753 22.4754 156.71 22.561C156.604 22.5695 156.507 22.5444 156.424 22.499C156.336 22.4536 156.24 22.4301 156.133 22.4386C155.695 22.4746 155.254 22.5072 154.819 22.5515C154.64 22.5703 154.496 22.5485 154.372 22.4897C154.279 22.446 154.192 22.4293 154.076 22.4395C153.857 22.46 153.637 22.4771 153.418 22.496C153.199 22.5148 152.98 22.5336 152.761 22.5524C152.542 22.5712 152.319 22.5816 152.104 22.6105C151.838 22.6463 151.707 22.5419 151.523 22.4899C151.195 22.5156 150.866 22.5413 150.541 22.5687C150.102 22.6046 149.664 22.6439 149.226 22.6782C149.186 22.6816 149.136 22.6513 149.089 22.6362C148.952 22.5942 148.851 22.5354 148.649 22.5542C147.666 22.6447 146.677 22.7218 145.691 22.8107C145.485 22.8295 145.394 22.7571 145.254 22.7185C145.207 22.7068 145.154 22.6833 145.11 22.6867C144.563 22.7295 144.015 22.7774 143.467 22.8236C143.245 22.8424 143.245 22.8424 142.871 22.7383C142.827 22.7266 142.77 22.7115 142.724 22.7149C142.01 22.7731 141.3 22.8347 140.586 22.8946C140.48 22.9031 140.383 22.8797 140.296 22.8343C140.212 22.7889 140.112 22.7637 140.009 22.7723C139.351 22.827 138.691 22.8801 138.037 22.9399C137.861 22.957 137.714 22.942 137.587 22.8815C137.497 22.8378 137.407 22.8193 137.294 22.8296C136.308 22.9134 135.322 22.9939 134.336 23.0827C134.146 23.0998 134.013 23.068 133.892 23.0125C133.795 22.9688 133.712 22.9605 133.592 22.9673C133.466 22.9759 133.39 22.9946 133.321 23.0452C133.232 23.1111 133.177 23.1937 132.964 23.1991C132.745 23.2044 132.523 23.2249 132.307 23.2538C132.101 23.2827 132.004 23.207 131.874 23.1617C131.777 23.1297 131.687 23.1248 131.564 23.1401C131.451 23.1537 131.382 23.1825 131.316 23.2365C131.172 23.3513 131.158 23.3513 130.978 23.2791C130.881 23.2404 130.794 23.2102 130.688 23.2171C130.249 23.2513 129.811 23.289 129.373 23.3283C129.121 23.3505 129.117 23.3539 128.927 23.2698C128.833 23.2278 128.743 23.2077 128.633 23.2179C127.428 23.3206 126.223 23.4198 125.018 23.5275C124.832 23.5446 124.705 23.5094 124.571 23.459C124.528 23.4422 124.484 23.4186 124.434 23.412C124.384 23.4053 124.328 23.4121 124.275 23.4155C123.398 23.4891 122.518 23.5593 121.645 23.6413C121.446 23.6601 121.339 23.6063 121.202 23.5626C121.155 23.5475 121.115 23.524 121.065 23.5173C121.015 23.5123 120.955 23.5242 120.902 23.5293C120.026 23.6029 119.146 23.6731 118.273 23.7551C118.064 23.7739 117.973 23.7032 117.836 23.6663C117.789 23.6529 117.739 23.6276 117.696 23.6311C117.42 23.6499 117.148 23.6756 116.872 23.6978C116.215 23.7543 115.558 23.8074 114.9 23.8655C114.648 23.8877 114.536 23.7378 114.323 23.7448C114.047 23.7536 113.775 23.7876 113.5 23.8116C113.281 23.8304 113.062 23.8475 112.843 23.868C112.627 23.8869 112.627 23.8868 112.087 23.7898C112.04 23.7814 111.983 23.7697 111.937 23.7731C111.17 23.8364 110.4 23.8997 109.636 23.9681C109.46 23.9835 109.314 23.9753 109.186 23.9131C109.096 23.8693 109.003 23.8475 108.893 23.8578C107.741 23.9553 106.592 24.0528 105.44 24.1487C105.397 24.1521 105.34 24.1353 105.297 24.1219C105.203 24.0916 105.113 24.0564 105.023 24.0244C104.957 24.0633 104.871 24.0988 104.828 24.1427C104.77 24.2017 104.69 24.2187 104.564 24.229C104.438 24.2392 104.358 24.236 104.257 24.1923C104.137 24.1385 104.013 24.0965 103.817 24.1136C102.612 24.2213 101.407 24.3189 100.202 24.4249C100.003 24.442 99.9086 24.3679 99.7684 24.3293C99.7217 24.3176 99.6681 24.2991 99.625 24.3025C99.1303 24.3419 98.6389 24.3847 98.1442 24.4258C96.7731 24.5421 95.4019 24.6534 94.0342 24.7764C93.7852 24.7987 93.615 24.7567 93.4377 24.6845C93.4009 24.6693 93.3376 24.661 93.2911 24.6644C91.3721 24.8253 89.4532 24.9878 87.5375 25.1503C87.4346 25.1588 87.3344 25.132 87.2506 25.0883C87.1635 25.0429 87.0668 25.0211 86.9605 25.0297C86.084 25.1032 85.2076 25.1768 84.3311 25.2521C84.112 25.2709 84.1087 25.2726 83.8814 25.1919C83.8346 25.1751 83.7842 25.1432 83.7477 25.1466C83.6714 25.1551 83.5989 25.1973 83.5466 25.2547C83.4943 25.3155 83.4115 25.3324 83.2887 25.3444C83.1625 25.3563 83.0794 25.3514 82.9823 25.3111C82.8586 25.2606 82.7447 25.2119 82.5455 25.229C80.0258 25.4479 77.5058 25.6584 74.986 25.8756C74.7835 25.8927 74.6893 25.822 74.5491 25.7834C74.5024 25.7717 74.4556 25.7549 74.4057 25.7516C74.3524 25.7483 74.2961 25.7584 74.243 25.7636C70.1328 26.1109 66.0227 26.4599 61.9126 26.8072C61.6669 26.8277 61.6702 26.8277 61.4033 26.9831C61.3704 27.0017 61.3275 27.027 61.281 27.0304C60.0228 27.1399 58.7612 27.246 57.4996 27.352C56.9518 27.3982 56.4041 27.4461 55.8563 27.4906C55.6604 27.506 55.6604 27.5061 55.1945 27.6887C55.1548 27.7039 55.1085 27.7242 55.0621 27.7276C52.8709 27.9141 50.6797 28.1005 48.4851 28.2836C48.3125 28.2973 48.1733 28.3278 48.0948 28.4089C48.0392 28.4662 47.9666 28.5 47.8571 28.5103C46.3232 28.6403 44.7895 28.772 43.2523 28.8987C43.0697 28.9141 42.9606 28.9614 42.872 29.0323C42.8424 29.0559 42.8163 29.0829 42.7733 29.0998C42.7336 29.1151 42.6739 29.1202 42.6241 29.1253C41.3094 29.2365 39.9948 29.3511 38.6767 29.4572C38.4808 29.4727 38.4019 29.5351 38.3065 29.601C38.2736 29.6229 38.2508 29.6533 38.2078 29.6685C38.1648 29.6821 38.1017 29.6821 38.0485 29.6856C36.9529 29.778 35.8574 29.872 34.7618 29.9644C34.5489 29.9563 34.5039 30.0541 34.4017 30.1132C34.3655 30.1335 34.3394 30.1605 34.2963 30.174C34.25 30.1876 34.1901 30.186 34.1336 30.1894C33.2571 30.263 32.3807 30.3416 31.5009 30.4101C31.2983 30.4255 31.2597 30.5116 31.151 30.5707C31.1147 30.5893 31.0786 30.618 31.0355 30.6231C30.4877 30.6727 29.9399 30.7188 29.3921 30.7633C29.2095 30.7787 29.2095 30.7771 28.8896 30.9443C28.8533 30.9629 28.8104 30.9832 28.7639 30.9883C27.9439 31.0602 27.1206 31.1286 26.2972 31.1987C26.191 31.2073 26.1185 31.2478 26.0662 31.3052C26.0139 31.3626 25.938 31.3998 25.8318 31.4083C25.1745 31.4648 24.5171 31.5229 23.8596 31.5743C23.677 31.588 23.558 31.6303 23.4794 31.7062C23.4205 31.7636 23.3478 31.7924 23.2316 31.8026C22.5742 31.8574 21.917 31.9172 21.2562 31.9652C21.0636 31.979 20.9647 32.0364 20.886 32.1073C20.8237 32.1647 20.7509 32.185 20.6281 32.1953C19.4229 32.2945 18.2144 32.3938 17.0127 32.5032C16.8102 32.5219 16.7062 32.4631 16.5726 32.4211C16.3821 32.3623 16.205 32.2985 16.203 32.167C16.2026 32.1468 16.1458 32.1233 16.1056 32.1065C15.8078 31.9804 15.8078 31.9804 15.7591 31.8457C15.7312 31.7631 15.7 31.6789 15.6754 31.5946C15.6301 31.4564 15.5231 31.4212 15.2176 31.4468C15.1081 31.4554 14.9986 31.4673 14.889 31.4742C14.7263 31.4862 14.6024 31.4307 14.5709 31.3296C14.5534 31.274 14.5326 31.2184 14.5151 31.1628C14.6812 31.1491 14.6778 31.1475 14.9671 30.9432C15.0888 30.857 15.0888 30.857 14.8515 30.7714C14.7612 30.7395 14.6742 30.7041 14.5773 30.6739C14.5339 30.6605 14.4773 30.6521 14.4308 30.6556C14.1552 30.6761 13.883 30.7001 13.6107 30.724C13.1725 30.7617 13.1725 30.7616 12.7243 30.5903C12.6876 30.5768 12.6306 30.5516 12.6371 30.5381C12.6727 30.4757 12.762 30.4486 12.8749 30.4417C13.041 30.4314 13.2036 30.4144 13.3663 30.4007C13.4759 30.3921 13.5854 30.3819 13.695 30.3733C13.797 30.3091 13.9025 30.2466 13.9979 30.1808C14.1492 30.0795 14.1491 30.0761 13.9386 30.0055C13.8049 29.9585 13.6613 29.9165 13.5243 29.8729C13.3616 29.8866 13.1956 29.902 13.0329 29.914C12.827 29.9294 12.7434 29.8975 12.6885 29.788C12.6405 29.6919 12.6957 29.6093 12.855 29.5889C13.0176 29.5684 13.1703 29.5548 13.2521 29.4687C13.3306 29.386 13.4697 29.3538 13.6424 29.3468C13.7521 29.3416 13.8616 29.3297 13.9711 29.3195C14.1139 29.3058 14.189 29.2197 14.1576 29.1237C14.14 29.0614 14.1059 29.0091 13.9761 28.9958C13.4 28.9375 13.3934 28.9392 13.1057 28.825C13.079 28.8149 13.0586 28.7846 13.0683 28.7694C13.0845 28.7441 13.1205 28.707 13.1604 28.7019C13.5421 28.6643 13.9238 28.6301 14.3057 28.6044C14.4319 28.5958 14.5248 28.5838 14.5671 28.5214C14.6256 28.4354 14.5977 28.3562 14.4805 28.2973C14.4436 28.2788 14.3834 28.2553 14.3435 28.2571C13.9052 28.288 13.4703 28.3273 13.032 28.3581C12.9921 28.3616 12.9186 28.333 12.9016 28.3111C12.8677 28.2707 12.9167 28.2167 13.0328 28.198C13.1853 28.1725 13.3415 28.1707 13.4433 28.0862C13.5844 27.9664 13.7588 27.8566 13.9166 27.7418C13.9429 27.7215 13.9855 27.6827 13.9755 27.6793C13.8918 27.6424 13.795 27.6138 13.708 27.5785C13.5608 27.5197 13.5595 27.4372 13.5915 27.3579C13.6171 27.2938 13.7164 27.2684 13.8394 27.2682C13.8926 27.2682 13.9591 27.2681 14.0021 27.2529C14.1145 27.2156 14.1504 27.1684 14.0933 27.1331C14.0597 27.1129 13.9995 27.0843 13.9596 27.0877C13.2491 27.1442 12.5352 27.1991 11.8282 27.2691C11.6191 27.2895 11.5217 27.2256 11.3947 27.1803C11.2977 27.145 11.2077 27.1316 11.0884 27.157C10.9758 27.1808 10.8659 27.1674 10.7952 27.1119C10.738 27.0665 10.8371 27.0276 11.1057 26.9834C11.1554 26.9749 11.2118 26.9698 11.2481 26.9529C11.6309 26.7704 11.6309 26.7687 11.8965 26.7448C12.1554 26.7225 12.1554 26.7208 12.2902 26.6229C12.3527 26.5773 12.4217 26.5317 12.4808 26.4844C12.5038 26.4659 12.5432 26.4321 12.5298 26.422C12.4558 26.3698 12.3559 26.3582 12.2397 26.3701C11.9808 26.3991 11.6747 26.3759 11.5409 26.5362C11.4886 26.5969 11.4058 26.6139 11.2863 26.6242C10.0844 26.7234 8.88259 26.8294 7.67734 26.9253C7.48144 26.9407 7.39271 27.0032 7.31733 27.0724C7.25173 27.1298 7.17884 27.1468 7.05268 27.157C6.92651 27.1673 6.82681 27.1725 6.75281 27.1169C6.70907 27.0833 6.74491 27.036 6.84391 26.9887C6.9858 26.9211 6.95788 26.8369 6.9101 26.7577C6.87605 26.7055 6.77242 26.6685 6.66277 26.6721C6.49998 26.679 6.34407 26.6977 6.20673 26.6305C6.12634 26.5918 6.02617 26.565 5.93589 26.5314C5.76195 26.4625 5.58797 26.3919 5.34601 26.4377C5.17953 26.4211 5.06224 26.3605 4.92853 26.3135C4.70459 26.2362 4.68446 26.2245 4.84274 26.1417C5.02081 26.0487 4.87927 25.9275 4.97758 25.8364C5.08244 25.7385 5.22741 25.6524 5.35564 25.5612C5.38852 25.5375 5.41811 25.5156 5.45098 25.4919C5.374 25.4583 5.30355 25.4163 5.21342 25.3928C5.0966 25.3626 5.03618 25.3256 5.0412 25.2211C5.01769 25.2059 5.0282 25.2447 5.05495 25.2548C5.08503 25.2648 5.15809 25.2563 5.19447 25.2445C5.28705 25.2123 5.33289 25.1701 5.30907 25.1348C5.29548 25.1163 5.232 25.0927 5.19211 25.0928C5.11897 25.0929 5.0564 25.13 5.03787 25.2211C4.66663 25.2907 4.28147 25.3248 3.89627 25.3523C3.85643 25.3557 3.80607 25.3221 3.75927 25.3053C3.60546 25.2481 3.60547 25.2498 3.15642 25.2335C3.10986 25.2319 3.04636 25.2084 3.02272 25.1848C2.92472 25.0821 2.92631 24.9692 2.87806 24.8597C2.96339 24.7888 3.04867 24.7196 3.13735 24.6503C3.31468 24.5102 3.54552 24.3869 3.68275 24.2333C3.65154 24.1508 3.61036 24.0682 3.75558 24.0006C4.1698 23.9158 4.1665 23.9158 4.27827 23.8348C4.59715 23.6051 4.91267 23.3738 5.2449 23.1475C5.33374 23.0884 5.33325 23.0564 5.17329 23.0313C5.12332 23.0246 5.07004 23.023 5.0169 23.0264C4.85087 23.0384 4.68513 23.069 4.52213 23.0624C4.35916 23.0576 4.23833 22.9836 4.10465 22.9382C3.96762 22.8912 3.83057 22.8425 3.69351 22.7938C3.53735 22.799 3.38187 22.8464 3.22445 22.7708C3.10385 22.7119 2.95361 22.67 2.81655 22.6213C2.91761 22.493 3.10893 22.395 3.25676 22.2819C3.39145 22.1789 3.39473 22.1806 3.75917 22.1009C3.93145 22.0636 3.98833 21.8731 3.84119 21.8176C3.66395 21.7504 3.47686 21.6883 3.29635 21.6245C3.14018 21.6297 2.98136 21.6754 2.83058 21.5998C2.71334 21.5426 2.57974 21.504 2.38727 21.5261C2.06207 21.5636 1.72993 21.5826 1.4013 21.6133C1.28843 21.6236 1.16529 21.617 1.11453 21.5598C1.08066 21.5194 1.17621 21.4636 1.28572 21.4517C1.45168 21.4346 1.60094 21.4142 1.68273 21.3298C1.7612 21.2454 1.90706 21.22 2.07974 21.2079C2.12623 21.2045 2.17914 21.1842 2.2021 21.164C2.32025 21.0661 2.45192 20.9816 2.70794 20.9847C2.81379 20.9508 2.86961 20.9086 2.83574 20.8682C2.81545 20.8463 2.74523 20.8178 2.70539 20.8212C2.42974 20.8384 2.15409 20.8556 1.8853 20.8863C1.75918 20.8999 1.66278 20.9034 1.58221 20.8529C1.52517 20.8193 1.55438 20.7737 1.65999 20.7247C1.75242 20.6824 1.77828 20.6335 1.77074 20.5762C1.75204 20.4431 1.65169 20.4044 1.33268 20.4133C1.10341 20.4203 1.04656 20.3985 0.994904 20.2839C0.981187 20.2569 0.947425 20.2199 0.970406 20.2013C1.11156 20.0865 1.20244 19.9448 1.47087 19.8906C1.57694 19.8702 1.68992 19.8701 1.75572 19.8262C1.82152 19.7823 1.8806 19.7316 1.94975 19.6894C2.0354 19.6387 2.09444 19.5914 2.05405 19.5595C1.98667 19.5022 1.88025 19.4973 1.75757 19.5177C1.65145 19.5347 1.53846 19.5365 1.42891 19.5467C1.23307 19.5655 1.07285 19.5219 1.04843 19.4478C0.982218 19.2523 0.912691 19.0586 0.853131 18.8631C0.846115 18.8395 0.862218 18.8092 0.888497 18.7889C0.980474 18.718 1.07919 18.6504 1.17452 18.5812C1.28631 18.5019 1.46609 18.5168 1.61877 18.5014C1.83451 18.4793 1.83446 18.4809 2.12115 18.3188C2.23318 18.2546 2.42972 18.2796 2.54518 18.2222C2.58145 18.2036 2.63749 18.1732 2.62726 18.1563C2.61362 18.1344 2.54691 18.1176 2.49688 18.1076C2.45019 18.0975 2.39361 18.0926 2.34382 18.0977C1.73956 18.1473 1.13869 18.2003 0.534406 18.2483C0.431484 18.2568 0.317877 18.2199 0.280495 18.1677C0.243166 18.1188 0.252187 18.0598 0.244671 18.0042C0.339999 17.935 0.448661 17.8708 0.530612 17.7965C0.592881 17.7391 0.665635 17.7138 0.791905 17.7102C0.958042 17.705 1.12063 17.6845 1.30656 17.6691C1.64845 17.4226 1.98349 17.1643 2.35197 16.9177C2.50002 16.8181 2.46193 16.717 2.4902 16.6108C2.51859 16.513 2.74154 16.5279 2.89069 16.499C3.01 16.4753 3.049 16.4213 3.00188 16.3843C2.97494 16.3624 2.91474 16.3372 2.8682 16.3372C2.7585 16.3374 2.64904 16.3527 2.53947 16.3612C2.4299 16.3698 2.3035 16.3649 2.21419 16.3937C2.12818 16.4208 2.07253 16.4781 2.01678 16.5271C1.95446 16.5811 1.8717 16.5998 1.74542 16.6033C1.58259 16.6069 1.41994 16.6222 1.25723 16.6342C1.0767 16.5687 0.8895 16.5049 0.71556 16.436C0.682107 16.4226 0.674818 16.3838 0.677749 16.3585C0.683373 16.2928 0.632891 16.2524 0.522689 16.2205C0.429189 16.1936 0.352119 16.155 0.265162 16.1214C0.330939 16.0758 0.403416 16.0318 0.455843 15.9829C0.570592 15.8799 0.715721 15.8056 0.968421 15.8086C1.06713 15.7428 1.14563 15.6618 1.27456 15.6161C1.39688 15.5721 1.607 15.6157 1.69853 15.5161C1.74431 15.4672 1.81329 15.4115 1.90274 15.3911C2.04518 15.3589 2.2316 15.3756 2.31324 15.2811C2.36226 15.2271 2.43461 15.1781 2.5308 15.1645C2.64027 15.1492 2.75321 15.1457 2.83249 15.1135C2.87545 15.0966 2.92157 15.0696 2.92121 15.046C2.92097 15.0308 2.85417 15.0073 2.80747 14.9973C2.76407 14.9855 2.70736 14.9772 2.65755 14.9806C2.49149 14.9909 2.32889 15.0097 2.16284 15.02C2.11635 15.0234 2.06299 15.0117 2.01297 15.0016C1.86628 14.9748 1.87571 14.9411 1.99111 14.8803C2.10654 14.8211 2.18851 14.7452 2.28384 14.676C2.39004 14.664 2.52307 14.6689 2.5957 14.6368C2.71789 14.5844 2.80312 14.5084 2.90182 14.4426C3.01136 14.4323 3.12433 14.4288 3.2271 14.4101C3.27021 14.4033 3.28959 14.3662 3.32582 14.3443C3.39165 14.3021 3.44726 14.2413 3.5367 14.221C3.6825 14.1904 3.86219 14.202 3.94718 14.1092C3.9962 14.0552 4.07174 13.9978 4.16476 13.9943C4.42396 13.9873 4.53222 13.8944 4.66382 13.8066C4.76253 13.7407 4.97581 13.7742 5.08449 13.7083C5.15697 13.6661 5.20938 13.6137 5.28188 13.5732C5.31154 13.5563 5.37454 13.5478 5.42433 13.5427C5.69653 13.5171 5.97215 13.4982 6.24432 13.4709C6.28746 13.4658 6.32699 13.4404 6.35991 13.4202C6.42904 13.3763 6.47126 13.3155 6.55725 13.2867C6.64323 13.258 6.76622 13.2578 6.87246 13.2493C7.21447 13.2236 7.2412 13.2303 7.39521 13.0868C7.51972 12.9703 7.8302 13.0525 7.93126 12.9243C7.98994 12.8501 8.09865 12.7893 8.29465 12.7806C8.57039 12.7684 8.84247 12.7361 9.11805 12.7138C9.36373 12.6933 9.36042 12.6933 9.62392 12.5362C9.74249 12.4652 9.91887 12.4752 10.0749 12.4615C10.2409 12.4478 10.3935 12.4274 10.472 12.343C10.5505 12.2603 10.6963 12.2331 10.8656 12.2211C11.0217 12.2091 11.1981 12.2174 11.32 12.1498C11.6167 11.9876 11.6133 11.9859 11.8225 11.9688C12.1512 11.9414 12.4799 11.914 12.8085 11.885C13.0276 11.8661 13.2569 11.8625 13.4625 11.8251C13.6117 11.798 13.6766 11.7035 13.772 11.6377C14.0442 11.612 14.3164 11.5864 14.5886 11.5625C14.9704 11.5283 15.3555 11.4975 15.7407 11.465C15.9059 11.4007 15.927 11.2591 16.2061 11.252C16.3723 11.2484 16.5348 11.2263 16.7008 11.2126C16.9764 11.1887 17.2485 11.158 17.5242 11.1458C17.7335 11.1372 17.7686 11.0461 17.8774 10.9886C17.9137 10.9684 17.9465 10.9397 17.9897 10.9346C18.4211 10.8868 18.8663 10.8762 19.2875 10.8065C19.3306 10.7997 19.3699 10.7643 19.3795 10.739C19.3859 10.7255 19.329 10.7003 19.2923 10.6885C19.2488 10.6751 19.1921 10.6617 19.1457 10.6651C17.7745 10.7798 16.4034 10.8961 15.0322 11.0107C14.8396 11.0278 14.8396 11.0261 14.3738 11.2121C14.3341 11.2274 14.2878 11.2443 14.238 11.2494C14.0189 11.2699 13.7964 11.282 13.5807 11.3075C13.4048 11.328 13.2583 11.3079 13.131 11.2474C13.0406 11.2037 12.9472 11.1903 12.8343 11.1938C12.708 11.199 12.6253 11.2177 12.5528 11.2633C12.4574 11.3258 12.4088 11.4067 12.2063 11.4238C11.2733 11.4975 10.3403 11.5796 9.41074 11.6583C9.28073 11.6348 9.21702 11.5995 9.2496 11.5573C9.26916 11.532 9.30854 11.4983 9.34838 11.4948C9.73012 11.459 10.1153 11.4281 10.497 11.394C10.5501 11.3888 10.6233 11.3921 10.653 11.3752C10.7981 11.2992 10.8494 11.1761 11.1252 11.1673C11.2847 11.162 11.4471 11.1366 11.5997 11.1128C11.6428 11.106 11.6821 11.0705 11.6917 11.0452C11.6948 11.0317 11.6412 11.0065 11.6012 10.9948C11.4541 10.9461 11.2856 11.0053 11.1388 10.9718C11.0887 10.96 11.0186 10.9432 11.0083 10.923C11.0014 10.9045 11.0574 10.8741 11.097 10.8555C11.1333 10.8386 11.1829 10.8234 11.2327 10.8182C11.6709 10.7789 12.1092 10.7379 12.5475 10.707C12.7268 10.695 12.8525 10.6527 12.931 10.5751C12.99 10.5177 13.0626 10.4873 13.1755 10.4787C13.9425 10.4154 14.7093 10.3453 15.4796 10.287C15.6722 10.2733 15.7711 10.2176 15.8498 10.145C15.9121 10.0876 15.9849 10.0673 16.1077 10.057C17.2067 9.968 18.2988 9.86888 19.3979 9.78323C19.6004 9.7678 19.6592 9.69525 19.7612 9.63275C19.7975 9.6108 19.8203 9.5838 19.8666 9.57026C19.9129 9.55671 19.9728 9.55831 20.0292 9.55487C20.9057 9.48129 21.7822 9.40268 22.6621 9.33416C22.868 9.31873 22.9065 9.23439 23.0119 9.17526C23.0482 9.15668 23.081 9.1263 23.1241 9.12119C23.7815 9.06306 24.4388 9.00831 25.0962 8.95186C25.5344 8.91423 25.9726 8.8766 26.4109 8.84065C26.6267 8.82353 26.6267 8.82183 26.9167 8.66134C26.9497 8.64276 26.9959 8.62078 27.039 8.61567C28.3006 8.50622 29.5589 8.40185 30.8204 8.29408C30.9267 8.28552 31.0025 8.24664 31.0548 8.18927C31.1071 8.13189 31.183 8.09303 31.286 8.08447C32.272 7.99896 33.258 7.91514 34.2474 7.83469C34.4267 7.82098 34.5523 7.78036 34.6309 7.70441C34.6899 7.64703 34.7625 7.61661 34.8754 7.60804C35.8615 7.5259 36.8475 7.43869 37.837 7.35992C38.0262 7.34452 38.1184 7.2871 38.2104 7.21956C38.2433 7.19592 38.2693 7.15711 38.3091 7.15369C38.8004 7.10588 39.2883 7.05639 39.7831 7.02375C39.989 7.01001 40.0577 6.93912 40.1398 6.8716C40.2054 6.81757 40.2816 6.79894 40.4078 6.79204C40.6835 6.77653 40.9556 6.74755 41.2245 6.71856C41.2643 6.71345 41.3136 6.6763 41.3165 6.6527C41.3225 6.60887 41.2455 6.57862 41.119 6.5636C39.8043 6.67481 38.4862 6.78601 37.1715 6.89721C36.9557 6.91602 36.9557 6.91603 36.6657 7.07652C36.6327 7.09511 36.5865 7.11708 36.54 7.12219C35.2785 7.22996 34.0202 7.33604 32.7586 7.4438C32.6524 7.45236 32.5765 7.49123 32.5242 7.5486C32.4719 7.60598 32.396 7.64484 32.2931 7.6534C31.088 7.75603 29.8829 7.86036 28.6743 7.95795C28.495 7.97166 28.3693 8.01057 28.2908 8.0882C28.2318 8.14559 28.1592 8.17603 28.0463 8.1846C26.8942 8.28043 25.7455 8.3813 24.5901 8.47376C24.4738 8.48234 24.3867 8.43356 24.3926 8.38804C24.3956 8.36444 24.4448 8.32563 24.4846 8.32221C25.0854 8.26583 25.683 8.20777 26.2874 8.16488C26.4899 8.15114 26.5486 8.0769 26.6506 8.0144C26.6835 7.99245 26.7097 7.96376 26.7527 7.95191C26.7991 7.93837 26.8589 7.93998 26.9154 7.93654C28.3397 7.81509 29.7639 7.69195 31.1916 7.57724C31.3975 7.56013 31.436 7.47747 31.5415 7.41834C31.5777 7.39807 31.6105 7.3677 31.6537 7.36427C32.0919 7.32327 32.5301 7.28732 32.9684 7.25138C33.7353 7.18637 34.5022 7.12136 35.2724 7.05635C35.4948 7.03753 35.4949 7.03752 35.7783 6.87872C35.8112 6.86014 35.8574 6.8365 35.9006 6.83307C37.9291 6.6603 39.9576 6.48752 41.9861 6.31643C42.0924 6.30787 42.1682 6.26901 42.2205 6.21163C42.2728 6.15594 42.3487 6.11539 42.4516 6.10515C45.1939 5.87249 47.9328 5.63982 50.6752 5.41053C50.8545 5.39514 50.9802 5.35958 51.0588 5.28026C51.1144 5.22288 51.1904 5.19245 51.3032 5.1822C54.3178 4.92728 57.3323 4.67238 60.3502 4.41577C62.3787 4.24468 64.4072 4.07022 66.4358 3.90251C66.6217 3.8871 66.7206 3.83472 66.8126 3.76549C66.8421 3.74186 66.8715 3.70305 66.9113 3.69963C67.3461 3.65695 67.781 3.61764 68.2159 3.57833C68.3529 3.62367 68.4898 3.66733 68.6268 3.71268C68.7289 3.6485 68.8277 3.58263 68.9297 3.51845C69.5872 3.46875 70.2342 3.39209 70.8987 3.36766C70.9419 3.36592 70.9889 3.39789 71.0357 3.41469C71.3465 3.5205 71.5226 3.51185 71.7165 3.37002C71.7855 3.31936 71.8446 3.27378 71.9509 3.26522C72.2795 3.23447 72.6117 3.21382 72.9369 3.17802C73.1128 3.15926 73.2593 3.17593 73.3866 3.23645C73.477 3.28017 73.5704 3.2986 73.68 3.28835C74.2842 3.23703 74.8851 3.18739 75.4893 3.1327C75.5325 3.12927 75.5719 3.10056 75.6048 3.08029C75.6739 3.03638 75.7331 2.98912 75.7988 2.94353C75.889 2.97207 75.9891 2.99386 76.0628 3.03085C76.1566 3.07456 76.243 3.07444 76.3692 3.06249C78.7794 2.85552 81.1931 2.65362 83.6033 2.44497C83.8092 2.42786 83.9001 2.49855 84.0403 2.53545C84.087 2.54888 84.1338 2.56567 84.1837 2.56898C84.2369 2.57228 84.2933 2.56211 84.3464 2.55699C86.1558 2.40303 87.9652 2.25074 89.7746 2.09678C90.0136 2.07626 90.0137 2.07626 90.371 2.18032C90.4144 2.19375 90.4711 2.20885 90.5176 2.20374C91.341 2.13697 92.1643 2.06516 92.9844 1.99671C93.0906 1.98815 93.1808 2.015 93.2778 2.05365C93.4685 2.12927 93.4817 2.12926 93.6196 2.01783C93.6853 1.9655 93.7546 1.93337 93.8641 1.91806C93.9835 1.90106 94.08 1.90601 94.1736 1.93624C94.3072 1.97821 94.4047 2.04888 94.6072 2.03008C95.4836 1.94977 96.3635 1.88294 97.2365 1.80094C97.4357 1.78215 97.543 1.83932 97.6766 1.8813C97.7234 1.89641 97.7669 1.91995 97.8169 1.92495C97.8668 1.92994 97.9265 1.91806 97.9796 1.91294C99.0752 1.82055 100.174 1.72986 101.266 1.63073C101.472 1.61193 101.563 1.68429 101.703 1.72119C101.75 1.73462 101.803 1.75817 101.847 1.75474C102.504 1.70167 103.165 1.6452 103.822 1.58876C104.058 1.56824 104.058 1.56992 104.418 1.6723C104.462 1.68573 104.519 1.69914 104.565 1.69571C105.332 1.63239 106.102 1.56738 106.869 1.50237C107.105 1.48185 107.105 1.48185 107.788 1.56865C107.838 1.57533 107.891 1.58539 107.941 1.58196C108.817 1.50839 109.697 1.43648 110.574 1.35785C110.75 1.34246 110.896 1.35576 111.023 1.41629C111.114 1.46 111.207 1.47843 111.317 1.46818C112.303 1.38436 113.292 1.30391 114.275 1.21503C114.464 1.19794 114.587 1.23485 114.721 1.28357C114.765 1.30037 114.808 1.32392 114.858 1.3306C114.908 1.33728 114.965 1.33046 115.018 1.32534C116.004 1.24152 116.993 1.16275 117.976 1.07219C118.175 1.0534 118.282 1.11057 118.416 1.15254C118.463 1.16766 118.513 1.19794 118.553 1.1962C118.938 1.16707 119.323 1.14131 119.705 1.0987C119.911 1.07484 120.002 1.15225 120.142 1.18916C120.189 1.2009 120.242 1.22613 120.285 1.22271C121.109 1.15594 121.932 1.08581 122.752 1.01399C122.868 1.00373 122.955 1.01878 123.049 1.06249C123.173 1.12133 123.316 1.14475 123.495 1.12599C123.877 1.08674 124.262 1.0593 124.647 1.02679C124.873 1.00797 124.873 1.00798 125.566 1.09477C125.616 1.10145 125.669 1.11149 125.719 1.10805C126.376 1.05329 127.037 1.00022 127.691 0.940409C127.867 0.923333 128.013 0.938317 128.141 0.998841C128.231 1.04255 128.321 1.06099 128.434 1.05074C129.038 0.999418 129.639 0.948096 130.243 0.896775C130.462 0.87796 130.681 0.845653 130.901 0.845379C131.06 0.846866 131.178 0.927625 131.322 0.967901C131.362 0.97965 131.428 0.966099 131.481 0.962661C132.248 0.897652 133.018 0.83769 133.782 0.764257C133.981 0.745468 134.088 0.802641 134.222 0.844615C134.269 0.859727 134.319 0.890007 134.359 0.888272C134.634 0.869387 134.907 0.843761 135.182 0.821505C135.511 0.794125 135.843 0.773484 136.168 0.735995C136.434 0.705324 136.536 0.85184 136.748 0.856631C136.911 0.861485 137.077 0.832628 137.24 0.81894C137.569 0.791561 137.897 0.760814 138.226 0.736806C138.342 0.728233 138.432 0.70114 138.467 0.640414C138.474 0.628606 138.417 0.603404 138.38 0.588279C137.935 0.416901 137.935 0.416893 137.49 0.454531C137.215 0.478473 136.942 0.502415 136.667 0.522985C136.62 0.526415 136.567 0.512997 136.52 0.502942C136.387 0.474452 136.4 0.440728 136.512 0.379906C136.624 0.319084 136.709 0.244818 136.804 0.175589C136.941 0.219244 137.075 0.262888 137.212 0.306543C137.322 0.297978 137.431 0.287743 137.541 0.279178C138.089 0.23467 138.636 0.188472 139.184 0.147335C139.224 0.143914 139.274 0.177569 139.321 0.194366C139.455 0.243082 139.575 0.285061 139.768 0.26628C140.259 0.216785 140.754 0.18077 141.245 0.138018C141.461 0.119207 141.461 0.119209 141.842 0.223242C141.885 0.234988 141.942 0.248403 141.988 0.244973C142.483 0.205588 142.974 0.16284 143.469 0.121769C143.575 0.113209 143.679 0.134992 143.756 0.183778C143.786 0.203968 143.78 0.237681 143.91 0.513959C144.306 0.737652 144.575 0.713729 144.847 0.693163C144.964 0.68459 145.067 0.676025 145.142 0.642219C145.182 0.623628 145.232 0.596592 145.231 0.57468C145.231 0.557824 145.157 0.530941 145.111 0.527628C144.781 0.494326 144.47 0.56552 144.148 0.581092C143.998 0.58802 143.868 0.529186 143.839 0.433141C143.832 0.40618 143.822 0.377539 143.812 0.350583C143.801 0.323626 143.794 0.294981 143.784 0.268024C143.654 0.259758 143.578 0.290189 143.522 0.347569C143.476 0.394823 143.411 0.448844 143.321 0.47424C143.232 0.501321 143.109 0.496426 142.999 0.504991C142.893 0.513551 142.777 0.535606 142.677 0.523932C142.577 0.510571 142.497 0.461781 142.403 0.431556C142.36 0.41644 142.306 0.394602 142.263 0.398027C141.881 0.427158 141.503 0.456275 141.124 0.49383C140.925 0.514305 140.824 0.443646 140.697 0.399978C140.597 0.366391 140.498 0.374932 140.482 0.45249C140.442 0.637957 140.596 0.715299 140.934 0.679479C141.213 0.648791 141.466 0.643435 141.687 0.757781C141.717 0.772914 141.787 0.779567 141.83 0.776142C142.102 0.755575 142.371 0.729953 142.644 0.709387C142.693 0.705953 142.747 0.712619 142.793 0.719303C143.473 0.809479 143.473 0.811174 143.702 0.790661C143.812 0.780411 143.918 0.771849 143.904 0.515654C144.109 0.240644 144.441 0.221692 144.763 0.180836C144.972 0.155291 145.063 0.229348 145.2 0.267947C145.247 0.281373 145.297 0.308275 145.34 0.30485C146.054 0.248336 146.764 0.188446 147.475 0.125193C147.594 0.11493 147.681 0.124938 147.775 0.168647C147.895 0.224122 148.029 0.25936 148.218 0.238897C148.596 0.197971 148.981 0.172213 149.367 0.138021C149.562 0.120921 149.562 0.120903 149.96 0.224916C150.003 0.236661 150.06 0.250076 150.106 0.246647C150.491 0.217512 150.873 0.181649 151.255 0.150832C151.361 0.142272 151.458 0.165747 151.542 0.211154C151.626 0.256561 151.726 0.280033 151.829 0.271476C152.214 0.240655 152.596 0.206478 152.977 0.175661C153.024 0.172232 153.081 0.18396 153.124 0.195705C153.531 0.299706 153.531 0.299688 153.717 0.2826C153.989 0.256977 154.268 0.244843 154.537 0.210796C154.799 0.176757 154.937 0.274343 155.117 0.328058C155.609 0.288676 156.104 0.256041 156.591 0.208236C156.791 0.187761 156.898 0.243247 157.032 0.286906C157.078 0.302019 157.125 0.33399 157.169 0.33225C157.335 0.325301 157.497 0.30656 157.66 0.292872C157.823 0.279185 157.989 0.265495 158.151 0.251807C158.338 0.300457 158.463 0.414921 158.728 0.375821C158.888 0.352024 159.057 0.346756 159.22 0.333069C159.382 0.319381 159.548 0.305691 159.711 0.292004C159.821 0.283439 159.934 0.278234 160.04 0.262931C160.235 0.237403 160.333 0.319886 160.473 0.356795C160.52 0.368536 160.574 0.388683 160.617 0.385258C160.945 0.36125 161.278 0.340611 161.599 0.301441C161.848 0.270789 162.019 0.321152 162.196 0.391727C162.233 0.406851 162.296 0.4152 162.342 0.411771C162.728 0.382635 163.109 0.346752 163.491 0.315935C163.594 0.307379 163.694 0.334223 163.778 0.377944C163.865 0.423347 163.962 0.445156 164.068 0.436596C164.45 0.405779 164.835 0.371577 165.217 0.34076C165.263 0.337331 165.32 0.350748 165.364 0.364178C165.738 0.46822 165.738 0.469907 165.957 0.449407C166.01 0.444284 166.066 0.440829 166.119 0.435706C166.392 0.411768 166.674 0.403 166.939 0.362215C167.244 0.316323 167.468 0.373358 167.686 0.469166C167.958 0.4486 168.237 0.43645 168.502 0.402407C168.701 0.376875 168.809 0.440791 168.942 0.482765C168.989 0.497877 169.04 0.528155 169.079 0.524734C169.465 0.495599 169.85 0.469844 170.228 0.427232C170.434 0.403377 170.525 0.479102 170.665 0.517697C170.712 0.531123 170.762 0.554672 170.805 0.551247C171.024 0.537489 171.244 0.516978 171.463 0.498164C171.718 0.475932 171.718 0.477616 172.059 0.580014C172.219 0.628697 172.378 0.589728 172.534 0.577734C172.7 0.564042 172.856 0.553737 172.99 0.62268C173.074 0.666402 173.174 0.693248 173.277 0.686377C173.496 0.670933 173.719 0.655493 173.935 0.62994C174.107 0.609498 174.257 0.622789 174.384 0.684997C174.475 0.728711 174.568 0.75052 174.678 0.74027C175.169 0.699203 175.664 0.656431 176.155 0.617049C176.198 0.613624 176.258 0.628726 176.298 0.643846C176.392 0.674071 176.482 0.707663 176.573 0.741263C176.788 0.725823 177.011 0.718821 177.223 0.694957C177.449 0.671078 177.655 0.66239 177.833 0.754878C177.87 0.775059 177.923 0.803632 177.966 0.801893C178.133 0.794943 178.295 0.777889 178.458 0.764202C178.621 0.750514 178.787 0.736824 178.949 0.723136C179.139 0.76504 179.261 0.88625 179.526 0.847151C179.686 0.823354 179.855 0.818086 180.018 0.804398C180.18 0.790711 180.346 0.775335 180.509 0.763333C180.562 0.759895 180.622 0.751388 180.668 0.758072C180.718 0.764753 180.762 0.788302 180.805 0.805104C180.939 0.85382 181.063 0.902554 181.252 0.873663C181.411 0.849866 181.581 0.844596 181.743 0.829223C181.966 0.810404 181.966 0.810408 182.336 0.916139C182.487 0.959778 182.655 0.902259 182.799 0.939164C182.896 0.964327 182.979 1.00635 183.073 1.03489C183.113 1.04664 183.176 1.05161 183.223 1.04818C183.442 1.03274 183.664 1.0173 183.88 0.991747C184.056 0.971301 184.203 0.991343 184.327 1.05187C184.417 1.09558 184.507 1.11402 184.62 1.10377C185.168 1.05589 185.716 1.01474 186.26 0.961806C186.446 0.943032 186.596 0.971508 186.7 1.03206C186.878 1.13635 187.125 1.01299 187.309 1.09704C187.423 1.14915 187.537 1.2097 187.743 1.18416C188.121 1.13986 188.506 1.11577 188.888 1.08495C189.025 1.13029 189.162 1.17564 189.302 1.22098C189.522 1.20216 189.741 1.18334 189.96 1.16621C190.122 1.15252 190.288 1.13715 190.451 1.12514C190.504 1.12171 190.561 1.11489 190.611 1.12326C190.661 1.13162 190.701 1.15349 190.748 1.17029C190.978 1.2526 190.978 1.25429 191.357 1.22011C191.519 1.20473 191.676 1.19443 191.813 1.26168C191.94 1.32389 192.09 1.33549 192.263 1.31674C192.588 1.28262 192.917 1.25693 193.249 1.23291C193.352 1.22436 193.448 1.25289 193.536 1.29661C193.666 1.36556 193.826 1.35862 193.988 1.33987C194.204 1.31601 194.416 1.29215 194.601 1.38631C194.638 1.40649 194.695 1.43506 194.734 1.43333C195.007 1.4195 195.283 1.40905 195.548 1.3767C195.813 1.34434 195.945 1.44868 196.128 1.49902C196.401 1.47677 196.676 1.45451 196.948 1.43226C197.002 1.42713 197.064 1.41189 197.111 1.42026C197.308 1.45542 197.423 1.58169 197.691 1.54259C197.847 1.52048 198.017 1.51353 198.18 1.50827C198.223 1.50653 198.28 1.5351 198.31 1.55698C198.327 1.56876 198.311 1.6008 198.291 1.61768C198.232 1.66495 198.159 1.70888 198.107 1.75783C198.1 1.76458 198.164 1.79483 198.201 1.80827C198.291 1.8385 198.394 1.83332 198.514 1.81969C198.616 1.80776 198.723 1.83123 198.797 1.8817C198.827 1.90189 198.818 1.93561 198.756 2.04694C198.758 2.12953 198.827 2.09236 198.849 2.03839C198.885 1.96081 198.815 1.93561 198.682 1.97792C198.59 2.00837 198.544 2.05226 198.568 2.08763C198.581 2.10615 198.645 2.12968 198.756 2.04694C199.047 1.94544 199.267 1.92664 199.486 1.90782C199.542 1.90269 199.608 1.88574 199.648 1.89581C199.792 1.93608 199.926 1.98481 200.066 2.03014C200.225 2.01983 200.375 1.99435 200.532 2.05989C200.753 2.15233 200.763 2.14389 200.975 2.12508C201.085 2.11483 201.194 2.10628 201.304 2.09772C201.413 2.08915 201.5 2.11432 201.597 2.15297C201.794 2.23195 201.811 2.23192 201.939 2.12388C202.015 2.05805 202.067 2.03608 202.164 2.0663C202.485 2.16872 202.488 2.17545 202.761 2.14477C202.986 2.11921 203.199 2.1122 203.367 2.20807C203.481 2.27535 203.517 2.26014 203.606 2.18923C203.842 2.00184 203.952 2.00506 204.403 2.13935C204.613 2.20314 204.828 2.13377 205.041 2.12508C205.22 2.11811 205.347 2.1584 205.362 2.26458C205.373 2.3303 205.404 2.37747 205.524 2.39923C205.57 2.4076 205.627 2.41933 205.674 2.4159C205.949 2.39533 206.221 2.37138 206.497 2.34744C206.636 2.33547 206.712 2.25617 206.683 2.15169C206.652 2.04048 206.704 1.99995 206.903 1.96767C207.023 1.94898 207.119 1.95225 207.216 1.98247C207.323 2.01605 207.293 2.04642 207.201 2.10722C206.981 2.25583 207.009 2.3468 207.296 2.44927C207.397 2.48454 207.477 2.51648 207.501 2.5687C207.515 2.59566 207.502 2.63107 207.532 2.65126C207.697 2.76399 207.924 2.83619 208.178 2.88982C208.42 2.844 208.587 2.91963 208.774 2.98008C208.921 3.0271 209.093 2.98644 209.249 2.96939C209.425 2.95063 209.572 2.96392 209.699 3.02613C209.789 3.06985 209.883 3.08995 209.992 3.08138C210.211 3.06257 210.434 3.0505 210.65 3.02326C210.835 2.99943 210.976 3.03297 211.093 3.09014C211.24 3.16243 211.402 3.11334 211.555 3.12326C211.762 3.13481 211.867 3.28469 212.136 3.2439C212.295 3.2201 212.461 3.21147 212.627 3.20452C212.67 3.20278 212.724 3.23138 212.761 3.25156C212.938 3.34404 213.145 3.33873 213.37 3.31148C213.526 3.29274 213.679 3.2757 213.833 3.33956C214.087 3.44713 214.368 3.54118 214.635 3.64029C214.673 3.71779 214.648 3.80882 214.838 3.8541C214.938 3.87757 215.032 3.91287 215.109 3.95154C215.203 3.99693 215.289 4.00863 215.409 3.99668C215.624 3.97281 215.85 3.96746 216.063 3.93685C216.258 3.90964 216.382 3.96513 216.503 4.01723C216.6 4.05925 216.69 4.07935 216.806 4.04887C216.925 4.02007 217.012 4.03849 217.109 4.08388C217.246 4.14608 217.256 4.13934 217.708 4.15731C217.755 4.15894 217.812 4.18414 217.839 4.20602C217.852 4.2178 217.823 4.25157 217.8 4.26846C217.77 4.28872 217.724 4.31236 217.681 4.31747C217.19 4.36191 216.695 4.4013 216.204 4.44573C216.154 4.45085 216.101 4.46273 216.065 4.47963C216.025 4.49822 215.975 4.52355 215.976 4.54715C215.976 4.56401 216.043 4.58416 216.09 4.5959C216.236 4.63448 216.408 4.57528 216.552 4.61892C216.649 4.64746 216.729 4.6878 216.826 4.71465C216.866 4.7264 216.929 4.72464 216.979 4.72121C217.145 4.7092 217.308 4.69215 217.474 4.68183C217.52 4.68008 217.574 4.69688 217.617 4.71031C217.938 4.81105 217.938 4.81104 218.214 4.78879C218.323 4.78022 218.439 4.75479 218.542 4.76478C218.642 4.77477 218.729 4.82017 218.82 4.84871C219.007 4.90916 219.184 4.96793 219.199 5.09939C219.206 5.14995 219.317 5.19363 219.427 5.19687C219.533 5.20011 219.646 5.18144 219.755 5.17119C220.014 5.15064 220.014 5.15064 220.352 5.25304C220.445 5.28158 220.545 5.28482 220.664 5.26782C220.711 5.26102 220.767 5.2677 220.817 5.27606C220.981 5.30114 220.981 5.33316 220.876 5.39397C220.728 5.48349 220.741 5.49191 221.161 5.56724C221.321 5.5957 221.445 5.64948 221.579 5.69651C221.796 5.7721 221.793 5.77209 221.651 5.87171C221.618 5.89367 221.589 5.91731 221.556 5.94095C221.46 6.00681 221.385 6.07769 221.186 6.08468C220.966 6.0917 220.747 6.11895 220.528 6.13777C220.316 6.15657 220.26 6.19708 220.282 6.31168C220.307 6.44986 220.351 6.46498 220.733 6.46282C220.843 6.46269 220.939 6.47605 221.023 6.52145C220.984 6.57544 220.911 6.61767 220.805 6.62792C220.533 6.65354 220.257 6.6758 219.985 6.69806C219.766 6.71687 219.547 6.73568 219.328 6.75449C219.192 6.76646 219.107 6.85423 219.145 6.95194C219.166 7.00754 219.183 7.06315 219.201 7.11875C219.239 7.22995 219.309 7.25853 219.532 7.25319C219.588 7.25144 219.641 7.23788 219.694 7.24118C219.911 7.25271 220.016 7.39248 220.275 7.3635C220.491 7.33964 220.717 7.3343 220.929 7.3037C221.125 7.27648 221.235 7.33704 221.372 7.38238C221.419 7.39749 221.469 7.42944 221.509 7.42771C221.785 7.40882 222.06 7.38995 222.329 7.35759C222.455 7.34395 222.532 7.35396 222.632 7.39429C222.873 7.49175 222.88 7.48669 223.235 7.45591C223.494 7.43198 223.497 7.43535 223.831 7.53776C223.925 7.56629 224.025 7.56616 224.144 7.55253C224.3 7.53548 224.462 7.50831 224.626 7.53339C224.676 7.54007 224.739 7.56023 224.756 7.58212C224.766 7.59728 224.72 7.63442 224.681 7.64627C224.39 7.73428 224.047 7.71954 223.728 7.75533C223.629 7.76557 223.528 7.73367 223.445 7.68826C223.358 7.64286 223.264 7.62444 223.151 7.63301C222.932 7.65182 222.71 7.66389 222.494 7.69113C222.308 7.71496 222.178 7.67635 222.047 7.62426C222.004 7.60746 221.954 7.57549 221.91 7.57723C221.419 7.61155 220.924 7.64589 220.436 7.6937C220.24 7.71417 220.127 7.66037 219.993 7.61503C219.946 7.59992 219.899 7.56795 219.856 7.56969C219.69 7.57663 219.527 7.59538 219.361 7.60907C218.757 7.66039 218.156 7.71171 217.552 7.75966C217.512 7.76308 217.461 7.72774 217.415 7.71263C217.324 7.6824 217.231 7.65385 217.137 7.62532C216.971 7.63901 216.809 7.65606 216.643 7.66639C216.523 7.67328 216.417 7.69702 216.402 7.76109C216.392 7.80324 216.503 7.84187 216.619 7.83835C216.732 7.83484 216.845 7.81447 216.938 7.83627C217.402 7.94357 217.402 7.94526 217.691 7.92298C217.943 7.90244 217.916 7.88561 218.14 7.97804C218.237 8.01837 218.324 8.04188 218.434 8.03163C218.706 8.00769 218.981 7.98374 219.257 7.96317C219.3 7.95975 219.357 7.97654 219.4 7.98997C219.728 8.0907 219.728 8.09406 219.997 8.06844C220.349 8.03766 220.362 8.02922 220.599 8.13175C220.763 8.20234 220.912 8.15327 221.068 8.1497C221.249 8.21522 221.446 8.27398 221.61 8.34794C221.804 8.43535 222.007 8.41991 222.226 8.39435C222.388 8.37561 222.548 8.36867 222.682 8.43761C222.809 8.50151 222.962 8.50807 223.135 8.491C223.291 8.47563 223.45 8.4434 223.613 8.48028C223.657 8.49034 223.724 8.51555 223.72 8.53072C223.717 8.55432 223.675 8.58809 223.632 8.59826C223.327 8.66775 222.991 8.66648 222.669 8.6989C222.626 8.70401 222.569 8.68554 222.526 8.67211C222.432 8.64188 222.342 8.6066 222.252 8.57469C222.089 8.58501 221.923 8.58858 221.764 8.609C221.641 8.62433 221.548 8.62277 221.457 8.58243C221.374 8.54545 221.283 8.50004 221.183 8.48837C221.083 8.47669 220.967 8.50212 220.858 8.51237C220.748 8.52262 220.622 8.51772 220.536 8.54479C220.45 8.57187 220.398 8.63094 220.342 8.6782C220.28 8.73054 220.193 8.74751 220.067 8.75272C219.951 8.75793 219.858 8.75129 219.771 8.7042C219.734 8.68402 219.683 8.66891 219.633 8.65549C219.587 8.64374 219.533 8.62526 219.49 8.62869C218.995 8.66807 218.504 8.71084 218.009 8.75191C217.764 8.77245 217.767 8.77243 217.253 8.67362C217.207 8.66525 217.15 8.65352 217.104 8.65695C216.828 8.67752 216.556 8.70146 216.28 8.72541C216.001 8.74935 216.005 8.74597 215.528 8.64038C215.441 8.62026 215.315 8.64739 215.212 8.64414C214.996 8.63598 214.887 8.49453 214.635 8.52182C214.419 8.54568 214.193 8.55102 213.977 8.58163C213.782 8.60884 213.668 8.54999 213.534 8.50465C213.487 8.48954 213.437 8.45588 213.397 8.45931C212.902 8.497 212.411 8.53976 211.753 8.54563C211.59 8.54584 211.664 8.58115 211.77 8.59281C211.924 8.61117 211.973 8.57571 211.889 8.50839C211.828 8.46127 211.741 8.43776 211.672 8.44964C211.635 8.45643 211.589 8.48853 211.753 8.54563C211.927 8.60947 211.917 8.64487 211.948 8.66506C212.022 8.71385 212.125 8.73395 212.231 8.72708C212.397 8.71507 212.56 8.69801 212.726 8.68769C212.772 8.68427 212.829 8.69599 212.873 8.70943C213.24 8.81348 213.243 8.82022 213.632 8.77928C213.754 8.76733 213.844 8.76722 213.941 8.79912C214.075 8.84278 214.172 8.91682 214.375 8.89297C214.643 8.86061 214.919 8.84173 215.195 8.82285C215.238 8.81942 215.285 8.84971 215.335 8.86313C215.472 8.90341 215.573 8.97914 215.775 8.94686C215.931 8.92138 216.1 8.91441 216.266 8.90915C216.31 8.90741 216.377 8.9343 216.397 8.95619C216.437 8.99491 216.388 9.04049 216.276 9.07266C216.229 9.0862 216.166 9.0829 216.113 9.08802C215.894 9.10684 215.675 9.12733 215.456 9.14277C215.339 9.15135 215.23 9.17678 215.218 9.23916C215.209 9.28131 215.329 9.31824 215.442 9.31473C215.608 9.30946 215.774 9.29577 215.933 9.27366C216.215 9.23623 216.461 9.24603 216.692 9.35193C216.856 9.4259 216.846 9.39895 217.022 9.61786C217.066 9.67343 217.196 9.67832 217.309 9.67481C217.581 9.66604 217.708 9.69117 217.686 9.74346C217.657 9.80755 217.561 9.82788 217.438 9.83646C217.219 9.85022 217 9.87242 216.78 9.89123C216.727 9.89635 216.668 9.90653 216.618 9.90323C216.568 9.89992 216.521 9.87975 216.478 9.86463C216.384 9.83272 216.303 9.78393 216.203 9.77226C216.104 9.76058 215.988 9.78602 215.878 9.79626C215.768 9.80483 215.653 9.83026 215.553 9.81858C215.453 9.80691 215.369 9.75646 215.279 9.72623C215.235 9.71111 215.182 9.68757 215.138 9.68931C214.919 9.70306 214.7 9.72526 214.481 9.74239C214.212 9.76464 214.212 9.76464 213.885 9.66054C213.791 9.63031 213.695 9.63213 213.572 9.64576C213.306 9.67306 213.303 9.668 212.816 9.57084C212.769 9.56078 212.713 9.54906 212.666 9.55417C212.172 9.59356 211.68 9.63631 211.189 9.67738C210.767 9.7133 210.767 9.71331 210.537 9.88216C210.366 10.0071 210.363 10.0071 210.533 10.0642C210.67 10.1112 210.794 10.1802 210.944 10.2053C211.084 10.2287 211.256 10.1526 211.41 10.23C211.487 10.2687 211.588 10.3107 211.684 10.3173C211.837 10.3255 211.999 10.2764 212.147 10.3504C212.221 10.3874 212.331 10.4261 212.424 10.4276C212.587 10.4308 212.753 10.4036 212.915 10.3916C212.965 10.3882 213.022 10.3881 213.068 10.3965C213.118 10.4065 213.162 10.4267 213.205 10.4435C213.339 10.5007 213.483 10.5274 213.655 10.4986C213.937 10.451 214.19 10.4743 214.411 10.5819C214.441 10.597 214.514 10.5986 214.561 10.5918C214.68 10.5748 214.783 10.573 214.873 10.6049C214.91 10.6184 214.964 10.6419 214.957 10.6571C214.948 10.6824 214.908 10.7161 214.865 10.7246C214.554 10.7823 214.218 10.7895 213.896 10.8202C213.853 10.8236 213.799 10.8018 213.756 10.7867C213.662 10.7565 213.582 10.706 213.482 10.6943C213.382 10.6826 213.266 10.7047 213.156 10.7133C213.047 10.7218 212.931 10.7473 212.831 10.7373C212.731 10.7256 212.637 10.6836 212.557 10.6466C212.463 10.6046 212.373 10.5996 212.251 10.6166C212.091 10.6387 211.925 10.6423 211.763 10.6543C211.672 10.6224 211.582 10.5871 211.488 10.5569C211.445 10.5418 211.392 10.5233 211.345 10.525C211.126 10.5388 210.907 10.5593 210.688 10.5781C210.468 10.5969 210.469 10.5969 210.095 10.4929C210.051 10.4812 209.994 10.4677 209.948 10.4712C209.672 10.4917 209.4 10.5173 209.125 10.5379C209.018 10.5465 208.922 10.523 208.834 10.4776C208.751 10.4322 208.65 10.407 208.548 10.4156C208.109 10.4515 207.671 10.4858 207.233 10.5285C207.057 10.5456 206.907 10.5306 206.786 10.47C206.646 10.4011 206.49 10.4182 206.327 10.4319C205.959 10.466 205.955 10.4643 205.718 10.3787C205.671 10.3619 205.624 10.3299 205.581 10.3316C205.199 10.3574 204.814 10.3815 204.435 10.4224C204.236 10.4446 204.129 10.3857 203.995 10.342C203.949 10.3269 203.898 10.295 203.858 10.2984C203.583 10.3173 203.307 10.3345 203.038 10.3685C202.77 10.4026 202.664 10.2459 202.461 10.2479C202.185 10.2499 201.913 10.289 201.641 10.313C201.422 10.3318 201.203 10.3506 200.984 10.3694C200.765 10.3882 200.546 10.4036 200.327 10.4258C200.21 10.4378 200.124 10.4227 200.027 10.3807C199.903 10.3252 199.756 10.2816 199.622 10.2312C199.418 10.159 199.418 10.159 199.172 10.1795C199.119 10.1846 199.063 10.1881 199.01 10.1932C198.608 10.2308 198.608 10.2274 198.094 10.1218C198.071 10.1168 198.012 10.1354 197.988 10.149C197.919 10.1929 197.857 10.2401 197.795 10.2857C197.704 10.2589 197.594 10.2438 197.534 10.2051C197.363 10.0958 197.099 10.2461 196.925 10.1385C196.861 10.0981 196.75 10.0628 196.651 10.0528C196.547 10.0429 196.431 10.0666 196.325 10.0768C196.05 10.1025 196.05 10.1008 195.816 10.2511C195.697 10.3254 195.524 10.3121 195.368 10.3292C195.206 10.3479 195.05 10.3582 194.912 10.2893C194.788 10.2271 194.639 10.2121 194.463 10.2326C194.247 10.2581 194.025 10.2736 193.805 10.289C193.759 10.2924 193.702 10.2841 193.655 10.274C193.145 10.1752 193.145 10.1735 192.9 10.1957C192.79 10.206 192.677 10.2095 192.571 10.2248C192.392 10.252 192.255 10.2168 192.125 10.163C192.081 10.1462 192.031 10.1142 191.987 10.116C191.768 10.1247 191.552 10.1401 191.337 10.1556C191.17 10.1676 191.004 10.1745 190.845 10.1983C190.58 10.2374 190.448 10.128 190.265 10.0777C189.993 10.0999 189.717 10.1154 189.445 10.1461C189.319 10.1597 189.236 10.1548 189.139 10.1145C189.015 10.0641 188.901 10.0069 188.702 10.0324C188.436 10.0665 188.157 10.0786 187.885 10.0992C187.701 10.0472 187.567 9.94111 187.305 9.98021C187.146 10.004 186.976 10.0093 186.813 10.023C186.594 10.0418 186.375 10.0589 186.156 10.0794C185.92 10.0999 185.924 10.0949 185.56 9.99588C185.349 9.93714 185.134 10.0031 184.922 10.0135C184.756 10.0222 184.674 10.0998 184.715 10.1992C184.757 10.2986 184.668 10.3762 184.515 10.3899C184.133 10.4224 183.748 10.4566 183.367 10.4857C183.32 10.4892 183.263 10.4774 183.22 10.4657C182.809 10.36 182.809 10.3617 182.627 10.3771C182.355 10.4027 182.076 10.4166 181.807 10.4489C181.621 10.4711 181.484 10.4358 181.364 10.3787C181.27 10.335 181.183 10.325 181.064 10.3352C179.749 10.4498 178.434 10.5559 177.123 10.6739C176.927 10.691 176.813 10.6423 176.68 10.5969C176.633 10.5818 176.589 10.5498 176.543 10.5499C176.433 10.55 176.323 10.5653 176.214 10.5756C175.723 10.6166 175.231 10.6661 174.736 10.6971C174.527 10.7108 174.472 10.7884 174.383 10.8526C174.314 10.9016 174.235 10.9219 174.112 10.9288C173.992 10.9357 173.906 10.9274 173.812 10.8837C173.691 10.8265 173.554 10.7913 173.369 10.8151C173.153 10.8423 172.934 10.8544 172.711 10.8732C172.598 10.8818 172.512 10.9122 172.477 10.973C172.47 10.9831 172.541 11.0083 172.581 11.0234C172.714 11.0738 172.842 11.1327 172.992 11.1679C173.145 11.2031 173.311 11.1624 173.47 11.1521C173.527 11.1486 173.58 11.1385 173.633 11.1401C173.683 11.1417 173.743 11.1501 173.78 11.1652C173.954 11.2408 174.137 11.2929 174.376 11.247C174.582 11.2687 174.691 11.4085 174.953 11.3711C175.112 11.349 175.278 11.3386 175.444 11.33C175.488 11.3283 175.535 11.3585 175.581 11.3737C175.715 11.4156 175.822 11.4829 176.022 11.454C176.234 11.4234 176.46 11.4181 176.675 11.3942C176.795 11.3806 176.882 11.3923 176.975 11.436C177.096 11.4914 177.233 11.5334 177.419 11.5062C177.578 11.4824 177.747 11.4771 177.91 11.4618C178.122 11.443 178.122 11.4446 178.503 11.5487C178.546 11.5604 178.603 11.5738 178.65 11.5704C178.925 11.5498 179.197 11.5242 179.473 11.5036C179.579 11.4951 179.683 11.5169 179.756 11.5657C179.787 11.5858 179.777 11.6196 179.788 11.6482C179.24 11.6944 178.692 11.7339 178.148 11.7902C177.942 11.8123 177.848 11.7433 177.711 11.7047C177.664 11.6913 177.614 11.6627 177.571 11.6662C177.185 11.6953 176.804 11.7261 176.422 11.7637C176.302 11.7756 176.213 11.769 176.122 11.7202C175.891 11.5907 175.613 11.6618 175.354 11.6807C175.154 11.6944 175.092 11.7468 175.117 11.858C175.149 11.9894 175.269 12.0297 175.575 12.0058C175.684 11.9972 175.794 11.9853 175.903 11.9784C176.01 11.9715 176.106 11.9933 176.194 12.0387C176.277 12.0841 176.377 12.1076 176.48 12.1007C176.699 12.0853 176.922 12.0698 177.134 12.0443C177.31 12.0238 177.457 12.0405 177.581 12.1027C177.718 12.1716 177.877 12.1563 178.037 12.1409C178.409 12.1067 178.412 12.1084 178.646 12.1924C178.693 12.2092 178.74 12.2412 178.783 12.2394C179.165 12.2137 179.55 12.1913 179.925 12.1504C180.121 12.1299 180.235 12.1837 180.365 12.2273C180.412 12.2425 180.459 12.2761 180.502 12.2727C180.778 12.2538 181.053 12.2349 181.322 12.2026C181.448 12.1872 181.525 12.1972 181.629 12.2376C181.876 12.3367 181.883 12.3333 182.231 12.3009C182.337 12.2906 182.454 12.2719 182.553 12.2853C182.653 12.2987 182.734 12.3475 182.828 12.3777C182.871 12.3911 182.924 12.4096 182.971 12.4061C183.19 12.3924 183.409 12.3719 183.628 12.3531C183.834 12.3343 183.834 12.336 184.221 12.44C184.378 12.4836 184.541 12.4463 184.697 12.4327C184.866 12.4173 185.019 12.4171 185.15 12.4827C185.28 12.5482 185.436 12.5447 185.602 12.531C185.759 12.5173 185.917 12.48 186.078 12.5253C186.445 12.6294 186.445 12.6311 186.671 12.6105C186.999 12.5815 187.325 12.5541 187.657 12.5284C187.7 12.525 187.757 12.5451 187.8 12.5586C187.894 12.5888 187.974 12.6393 188.074 12.6509C188.174 12.6643 188.29 12.6439 188.397 12.6337C188.738 12.6012 188.762 12.5894 188.993 12.7004C189.187 12.7911 189.424 12.6594 189.605 12.7637C189.709 12.8225 189.85 12.8695 190.042 12.8406C190.201 12.8168 190.367 12.8099 190.533 12.7962C190.796 12.774 190.796 12.7757 191.13 12.8764C191.173 12.8898 191.23 12.9066 191.273 12.9032C191.492 12.8894 191.715 12.8773 191.927 12.8467C192.176 12.811 192.336 12.8749 192.523 12.937C192.67 12.9857 192.843 12.945 192.999 12.928C193.168 12.9109 193.321 12.9158 193.448 12.9814C193.582 13.0486 193.738 13.04 193.904 13.0263C194.061 13.0143 194.219 12.9753 194.38 13.0223C194.724 13.1264 194.724 13.1264 194.973 13.1059C195.192 13.0871 195.411 13.0666 195.63 13.0528C195.673 13.0494 195.727 13.0712 195.77 13.0863C195.864 13.1166 195.944 13.167 196.044 13.1787C196.144 13.1904 196.26 13.1683 196.37 13.1598C196.479 13.1512 196.595 13.1258 196.695 13.1358C196.795 13.1458 196.889 13.1878 196.969 13.2248C197.063 13.2685 197.15 13.2734 197.276 13.2564C197.435 13.2343 197.601 13.229 197.764 13.217C197.854 13.2489 197.948 13.2809 198.035 13.3161C198.125 13.3531 198.221 13.3496 198.344 13.3377C198.752 13.2967 198.756 13.3018 199.1 13.4058C199.257 13.4528 199.419 13.4139 199.575 13.4019C199.741 13.3882 199.897 13.3813 200.028 13.4485C200.155 13.5124 200.312 13.5206 200.477 13.5002C200.584 13.4866 200.697 13.478 200.806 13.4728C200.856 13.4711 200.916 13.4778 200.953 13.4912C201.13 13.5618 201.304 13.6256 201.546 13.5798C201.759 13.593 201.867 13.7311 202.123 13.7038C202.339 13.6799 202.565 13.6746 202.777 13.644C202.973 13.6168 203.113 13.6638 203.214 13.7227C203.395 13.827 203.645 13.6851 203.826 13.7877C203.93 13.8465 204.064 13.8935 204.263 13.868C204.482 13.8408 204.552 13.8761 204.617 13.9822C204.655 14.0428 204.649 14.0917 204.583 14.139C204.517 14.188 204.444 14.1796 204.337 14.1241C204.213 14.0619 204.066 14.0503 203.89 14.064C203.718 14.0777 203.61 13.9902 203.467 13.9567C203.323 13.9214 203.154 13.9806 203.004 13.9353C202.65 13.8296 202.65 13.8296 202.411 13.8501C202.248 13.8638 202.079 13.8707 201.92 13.8945C201.731 13.9234 201.607 13.8713 201.477 13.8243C201.43 13.8075 201.383 13.7755 201.343 13.7772C200.961 13.803 200.576 13.8271 200.197 13.8697C199.998 13.8919 199.891 13.8313 199.757 13.7893C199.711 13.7742 199.66 13.744 199.62 13.7474C199.292 13.7714 198.966 13.8021 198.638 13.8312C198.575 13.8768 198.506 13.9207 198.447 13.9696C198.385 14.0203 198.299 14.0423 198.172 14.0408C197.963 14.0411 197.758 14.1121 197.547 14.023C197.329 13.9323 197.313 13.9374 197.104 13.9595C196.838 13.9885 196.556 13.9821 196.307 14.0482C196.264 14.06 196.218 14.0921 196.219 14.1157C196.215 14.1309 196.286 14.1527 196.329 14.1661C196.476 14.2064 196.645 14.1472 196.792 14.1892C196.888 14.216 196.969 14.2564 197.066 14.2849C197.106 14.2966 197.165 14.2949 197.219 14.2931C197.275 14.2914 197.328 14.2795 197.381 14.2811C197.431 14.2828 197.485 14.2928 197.525 14.3079C197.709 14.3717 197.902 14.4305 198.066 14.5062C198.227 14.5801 198.376 14.5294 198.535 14.5258C199.175 14.643 199.176 14.6447 199.604 14.6071C199.71 14.5985 199.82 14.5882 199.929 14.5898C199.976 14.5897 200.02 14.62 200.066 14.6368C200.2 14.6872 200.327 14.7326 200.513 14.7054C200.672 14.6816 200.842 14.6763 201.004 14.6609C201.223 14.6421 201.223 14.6421 201.597 14.7478C201.691 14.7747 201.79 14.7712 201.91 14.7576C202.013 14.7457 202.12 14.7708 202.193 14.8196C202.224 14.8398 202.214 14.8735 202.225 14.9021C201.896 14.9295 201.564 14.9485 201.245 14.9893C201.04 15.0149 200.945 14.9425 200.809 14.9039C200.762 14.8905 200.711 14.8619 200.668 14.8653C200.343 14.891 200.018 14.9201 199.692 14.9542C199.653 14.9576 199.603 14.9964 199.6 15.02C199.594 15.0639 199.678 15.1059 199.798 15.1041C199.957 15.1022 200.113 15.0733 200.257 15.1423C200.378 15.2028 200.528 15.2296 200.703 15.2024C200.81 15.1871 200.923 15.1869 201.029 15.1733C201.311 15.1325 201.567 15.1406 201.781 15.255C201.945 15.2851 202.104 15.2563 202.26 15.2409C202.376 15.229 202.489 15.217 202.572 15.2489C202.75 15.3161 202.924 15.3834 203.166 15.3375C203.429 15.3844 203.63 15.4836 203.851 15.5642C203.954 15.6029 204.034 15.6247 204.154 15.5993C204.203 15.5891 204.263 15.589 204.316 15.5839C204.426 15.5753 204.542 15.5499 204.642 15.5599C204.742 15.5716 204.826 15.6203 204.916 15.6506C204.959 15.6657 205.009 15.6909 205.053 15.6892C205.219 15.6805 205.381 15.6635 205.544 15.6498C205.707 15.6378 205.869 15.6258 206.032 15.6138C206.169 15.6574 206.309 15.7011 206.446 15.7448C206.666 15.7259 206.885 15.7071 207.101 15.69C207.343 15.6695 207.343 15.6711 207.694 15.7752C207.851 15.8222 208.016 15.7917 208.166 15.7696C208.414 15.7339 208.582 15.7977 208.759 15.8649C208.796 15.8784 208.862 15.8867 208.905 15.8799C209.078 15.8561 209.228 15.8744 209.355 15.9366C209.445 15.9804 209.535 16.0005 209.645 15.9919C210.027 15.9594 210.409 15.9252 210.79 15.8961C210.837 15.8927 210.89 15.9078 210.934 15.9212C211.274 16.0236 211.278 16.0286 211.527 16.0014C211.749 15.9775 211.955 15.9671 212.133 16.0596C212.17 16.0798 212.227 16.1084 212.266 16.1066C212.539 16.0894 212.814 16.0706 213.083 16.0416C213.206 16.0279 213.292 16.0329 213.39 16.0715C213.513 16.1203 213.624 16.1791 213.826 16.157C214.387 16.0939 214.391 16.104 215.057 16.2195C215.104 16.2278 215.167 16.2143 215.22 16.2075C215.333 16.1905 215.416 16.214 215.517 16.2526C215.741 16.34 215.747 16.3349 215.96 16.3161C216.122 16.3007 216.292 16.2972 216.451 16.2717C216.696 16.2343 216.86 16.2998 217.044 16.362C217.191 16.4107 217.36 16.37 217.516 16.3546C217.685 16.3376 217.838 16.3424 217.966 16.4063C218.053 16.45 218.146 16.4735 218.256 16.465C218.638 16.4341 219.019 16.3999 219.401 16.3691C219.448 16.3657 219.504 16.3791 219.548 16.3909C219.928 16.4949 219.929 16.5 220.304 16.4607C220.423 16.4488 220.523 16.4453 220.613 16.4806C220.7 16.5142 220.794 16.5461 220.884 16.578C221.047 16.566 221.213 16.5624 221.372 16.542C221.495 16.5267 221.581 16.5333 221.678 16.5686C221.805 16.6139 221.913 16.693 222.112 16.654C222.214 16.6353 222.334 16.6402 222.437 16.6233C222.56 16.6012 222.643 16.6146 222.74 16.6583C222.861 16.7104 222.984 16.7641 223.177 16.7369C223.389 16.7063 223.615 16.701 223.831 16.6771C223.95 16.6635 224.034 16.6769 224.131 16.7206C224.251 16.7761 224.388 16.8113 224.574 16.7891C224.952 16.7465 224.956 16.7549 225.326 16.8607C225.42 16.8875 225.519 16.884 225.639 16.8704C225.742 16.8585 225.849 16.8836 225.922 16.9324C225.993 16.9863 225.987 17.02 225.994 17.0486ZM196.134 1.88334C196.025 1.8919 195.915 1.90215 195.753 1.7557C195.743 1.73043 195.749 1.70009 195.726 1.67821C195.672 1.63276 195.588 1.60084 195.488 1.59591C195.309 1.58939 195.093 1.64696 195.097 1.69078C195.101 1.72786 195.158 1.75981 195.269 1.79001C195.315 1.80175 195.352 1.82194 195.396 1.83537C195.523 1.87398 195.623 1.94972 195.806 1.91072C195.771 1.80626 195.788 1.85849 195.806 1.91072C195.79 1.97479 195.841 2.02024 195.961 2.03864C195.994 2.04365 196.044 2.04021 196.07 2.03006C196.173 1.99285 196.188 1.94227 196.11 1.80921C196.097 1.83114 196.108 1.86988 196.138 1.87996C196.168 1.89003 196.241 1.88152 196.277 1.86968C196.37 1.83754 196.416 1.79534 196.392 1.75997C196.378 1.74144 196.315 1.71792 196.275 1.71797C196.205 1.71806 196.142 1.75522 196.134 1.88334ZM223.319 21.3975C223.077 21.4298 222.798 21.4184 222.556 21.4844C222.513 21.4962 222.47 21.5266 222.467 21.5502C222.464 21.5654 222.531 21.5873 222.571 21.599C222.661 21.6259 222.761 21.6173 222.877 21.6087C223.053 21.5967 223.157 21.6741 223.294 21.7127C223.338 21.7245 223.394 21.7328 223.441 21.7294C223.71 21.7088 223.975 21.6866 224.244 21.6627C224.291 21.6575 224.34 21.6457 224.38 21.6305C224.512 21.5814 224.498 21.5494 224.368 21.5125C224.225 21.4722 224.111 21.4049 223.964 21.3731C223.754 21.3278 223.542 21.3888 223.319 21.3975ZM204.46 22.6515C204.297 22.6652 204.138 22.6789 203.975 22.6925C203.922 22.6977 203.865 22.6994 203.816 22.7062C203.713 22.7181 203.637 22.7536 203.588 22.8093C203.665 22.853 203.759 22.8782 203.861 22.873C204.024 22.8627 204.183 22.8406 204.346 22.8354C204.522 22.8284 204.627 22.9041 204.763 22.9427C204.807 22.9545 204.86 22.9561 204.91 22.9577C205.156 22.9641 205.304 22.8763 205.256 22.7533C205.221 22.6573 205.094 22.6001 204.941 22.6121C204.782 22.6241 204.619 22.6378 204.46 22.6515ZM224.417 18.9048C224.457 18.8761 224.5 18.8558 224.519 18.8305C224.578 18.7444 224.553 18.6804 224.443 18.6131C224.308 18.5307 224.146 18.5865 223.997 18.5951C223.96 18.5969 223.921 18.6323 223.901 18.6543C223.888 18.6694 223.889 18.7015 223.909 18.7099C224.073 18.7771 224.247 18.8392 224.417 18.9048ZM195.501 13.9615C195.342 13.9752 195.179 13.9855 195.02 14.0043C194.98 14.0094 194.944 14.0414 194.921 14.0634C194.879 14.1039 194.926 14.1595 195.062 14.1643C195.219 14.1709 195.381 14.142 195.544 14.1283C195.75 14.1112 195.872 14.0487 195.794 13.9949C195.721 13.9427 195.621 13.9327 195.501 13.9615ZM20.4574 10.5775C20.5636 10.569 20.6732 10.5621 20.7794 10.5501C20.879 10.5382 20.9549 10.501 21.0039 10.4453C20.9201 10.4016 20.8266 10.3781 20.7237 10.3833C20.5609 10.3936 20.4016 10.4073 20.2423 10.4244C20.1427 10.4346 20.0469 10.4718 20.0245 10.5292C20.002 10.573 20.225 10.598 20.4574 10.5775ZM181.383 10.1174C181.426 10.1325 181.47 10.1628 181.513 10.1627C181.62 10.1626 181.729 10.1523 181.829 10.1354C181.872 10.1286 181.904 10.0982 181.924 10.0746C181.937 10.0594 181.933 10.0324 181.913 10.019C181.816 9.93817 181.43 9.96731 181.369 10.0601C181.362 10.077 181.379 10.0988 181.383 10.1174ZM170.751 0.900227C170.761 0.927184 170.765 0.954145 170.779 0.981098C170.806 1.03163 170.88 1.06863 170.986 1.09378C171.069 1.05154 171.111 1.0043 171.107 0.953733C171.104 0.926768 171.093 0.899794 171.079 0.872842C171.052 0.822307 170.978 0.785329 170.872 0.760178C170.789 0.800735 170.75 0.847974 170.751 0.900227ZM232.162 22.9103C232.133 22.9322 232.103 22.9542 232.07 22.9744C232.161 23.0232 232.244 23.0383 232.307 23.0112C232.347 22.9943 232.369 22.969 232.399 22.947C232.309 22.8983 232.228 22.8849 232.162 22.9103ZM230.098 23.1421C230.142 23.1572 230.182 23.1774 230.229 23.1874C230.305 23.2042 230.375 23.1754 230.427 23.1147C230.383 23.0996 230.343 23.0794 230.297 23.0693C230.22 23.0526 230.15 23.0813 230.098 23.1421ZM231.403 22.832C231.381 22.8725 231.428 22.9061 231.551 22.9346C231.581 22.9127 231.62 22.8924 231.64 22.8688C231.672 22.83 231.615 22.7946 231.495 22.7678C231.462 22.7881 231.433 22.81 231.403 22.832ZM224.357 21.0237C224.335 21.0642 224.382 21.0978 224.505 21.1263C224.535 21.1044 224.574 21.0841 224.594 21.0605C224.627 21.0216 224.569 20.9863 224.449 20.9595C224.416 20.9798 224.387 21.0017 224.357 21.0237ZM214.611 9.10844C214.581 9.13039 214.552 9.15234 214.519 9.1726C214.609 9.22137 214.692 9.23644 214.755 9.20939C214.795 9.19248 214.818 9.16717 214.847 9.14522C214.757 9.09645 214.677 9.08307 214.611 9.10844ZM205.354 2.79218C205.434 2.80388 205.5 2.78021 205.555 2.71778C205.512 2.70266 205.472 2.68248 205.425 2.67242C205.348 2.65566 205.279 2.68441 205.227 2.74516C205.27 2.76196 205.314 2.77706 205.354 2.79218ZM200.484 2.40214C200.454 2.42409 200.425 2.44604 200.392 2.46631C200.483 2.51508 200.566 2.53014 200.629 2.50309C200.668 2.48618 200.691 2.46087 200.721 2.43892C200.63 2.39015 200.55 2.37846 200.484 2.40214ZM167.48 0.902616C167.45 0.924566 167.421 0.946516 167.388 0.966785C167.478 1.01555 167.561 1.03062 167.624 1.00357C167.664 0.986663 167.687 0.961349 167.716 0.939399C167.626 0.89063 167.546 0.878935 167.48 0.902616ZM3.47617 14.8211C3.43272 14.806 3.38931 14.7909 3.34915 14.7741C3.25346 14.8197 3.22421 14.8619 3.27789 14.8939C3.31145 14.914 3.36146 14.9258 3.40491 14.9409C3.50393 14.8953 3.52656 14.8548 3.47617 14.8211Z" fill="#36BE83"/>
</svg>
